<?xml version="1.0" encoding="UTF-8"?>
<!DOCTYPE svg PUBLIC "-//W3C//DTD SVG 1.1//EN" "http://www.w3.org/Graphics/SVG/1.1/DTD/svg11.dtd">
<!-- Creator: CorelDRAW X6 -->
<svg xmlns="http://www.w3.org/2000/svg" xml:space="preserve" width="31.617mm" height="31.617mm" version="1.1" style="shape-rendering:geometricPrecision; text-rendering:geometricPrecision; image-rendering:optimizeQuality; fill-rule:evenodd; clip-rule:evenodd"
viewBox="0 0 3162 3162"
 xmlns:xlink="http://www.w3.org/1999/xlink">
 <defs>
  <style type="text/css">
   <![CDATA[
    .str0 {stroke:#ffffff;stroke-width:10.58}
    .fil3 {fill:none}
    .fil2 {fill:none}
    .fil0 {fill:#ffffff}
    .fil1 {fill:black;fill-opacity:0.000000}
   ]]>
  </style>
    <clipPath id="id0">
     <path d="M1523 83c-89,12 -127,20 -178,37 -162,53 -302,161 -396,307 -45,70 -73,133 -97,222l-17 63 -2 442 -2 442 18 14c23,18 46,18 66,-2l16 -16 0 -378 0 -378 649 0 649 0 0 377c0,371 0,377 14,394 17,22 53,24 72,4 13,-13 13,-22 13,-429 0,-353 -2,-426 -11,-479 -11,-66 -40,-154 -67,-208 -102,-202 -305,-355 -523,-397 -55,-10 -170,-18 -204,-13zm10 337c0,130 -3,235 -6,235 -3,0 -85,-74 -182,-165l-176 -165 21 -16c83,-63 236,-121 321,-124l22 -1 0 235zm232 -211c65,19 146,58 193,93 27,20 31,26 24,32 -5,4 -84,79 -176,165 -92,86 -169,157 -171,157 -2,0 -3,-106 -3,-236l0 -236 38 5c21,3 63,12 94,21zm-486 355l178 167 -252 2c-138,1 -255,0 -259,-1 -17,-7 23,-141 64,-215 22,-40 80,-120 86,-120 2,0 84,75 182,167zm821 -124c54,72 103,183 119,270l4 25 -260 0 -260 0 33 -33c76,-76 325,-305 329,-303 3,1 18,19 35,41zm-1612 1346c-107,54 -119,212 -20,278l30 20 -69 228c-67,219 -70,231 -70,291 0,58 1,66 21,106 14,28 35,57 61,82l40 38 0 109c0,107 0,109 16,125l16 16 1067 0 1067 0 16 -16c16,-16 16,-18 16,-124l0 -107 43 -45c56,-58 77,-104 81,-173 3,-49 1,-58 -67,-286 -39,-129 -70,-238 -70,-241 0,-3 13,-15 28,-26 65,-46 86,-137 48,-207 -21,-38 -45,-60 -84,-77 -21,-9 -147,-10 -1080,-10l-1056 0 -35 17zm2141 90c36,17 44,74 13,102l-18 16 -1045 0 -1045 0 -17 -17c-13,-13 -17,-24 -17,-45 0,-29 8,-43 30,-56 19,-11 2076,-11 2099,-1zm-1767 230c-2,6 -23,114 -48,240 -49,251 -51,288 -24,366l13 38 -131 0 -131 0 -22 -18c-30,-25 -37,-34 -52,-65 -22,-47 -18,-73 57,-323 38,-129 71,-238 73,-242 2,-6 35,-8 136,-8 124,0 133,1 130,12zm351 17c-8,57 -43,355 -50,420 -6,63 -3,121 10,186l4 22 -126 0c-142,0 -136,2 -161,-55 -29,-66 -29,-68 34,-394l40 -207 126 0 125 0 -4 28zm319 302l2 326 -124 -2 -124 -2 -9 -26c-20,-56 -17,-158 12,-393 15,-122 27,-224 27,-227 0,-4 44,-5 108,-4l108 2 2 326zm313 -326c0,2 11,91 23,197 13,107 26,219 29,251 7,62 -1,146 -16,183l-9 22 -120 0 -120 0 0 -328 0 -328 106 0c58,0 106,2 106,3zm351 0c0,2 20,104 44,227 54,272 57,320 25,383l-20 39 -131 2 -131 2 4 -18c2,-10 7,-44 12,-75 7,-52 5,-76 -20,-288 -15,-128 -29,-242 -31,-253l-4 -22 127 0c70,0 127,1 127,3zm438 239c50,166 72,249 72,272 0,43 -24,93 -59,121l-26 21 -132 0 -132 0 13 -35c8,-21 15,-57 16,-91 3,-50 -2,-82 -41,-282 -24,-124 -45,-231 -47,-237 -3,-11 5,-12 131,-10l134 2 72 239zm-54 580l0 66 -1000 0 -1000 0 0 -66 0 -66 1000 0 1000 0 0 66z"/>
    </clipPath>
    <clipPath id="id1">
     <path d="M1523 83c-89,12 -127,20 -178,37 -162,53 -302,161 -396,307 -45,70 -73,133 -97,222l-17 63 -2 442 -2 442 18 14c23,18 46,18 66,-2l16 -16 0 -378 0 -378 649 0 649 0 0 377c0,371 0,377 14,394 17,22 53,24 72,4 13,-13 13,-22 13,-429 0,-353 -2,-426 -11,-479 -11,-66 -40,-154 -67,-208 -102,-202 -305,-355 -523,-397 -55,-10 -170,-18 -204,-13zm10 337c0,130 -3,235 -6,235 -3,0 -85,-74 -182,-165l-176 -165 21 -16c83,-63 236,-121 321,-124l22 -1 0 235zm232 -211c65,19 146,58 193,93 27,20 31,26 24,32 -5,4 -84,79 -176,165 -92,86 -169,157 -171,157 -2,0 -3,-106 -3,-236l0 -236 38 5c21,3 63,12 94,21zm-486 355l178 167 -252 2c-138,1 -255,0 -259,-1 -17,-7 23,-141 64,-215 22,-40 80,-120 86,-120 2,0 84,75 182,167zm821 -124c54,72 103,183 119,270l4 25 -260 0 -260 0 33 -33c76,-76 325,-305 329,-303 3,1 18,19 35,41zm-1612 1346c-107,54 -119,212 -20,278l30 20 -69 228c-67,219 -70,231 -70,291 0,58 1,66 21,106 14,28 35,57 61,82l40 38 0 109c0,107 0,109 16,125l16 16 1067 0 1067 0 16 -16c16,-16 16,-18 16,-124l0 -107 43 -45c56,-58 77,-104 81,-173 3,-49 1,-58 -67,-286 -39,-129 -70,-238 -70,-241 0,-3 13,-15 28,-26 65,-46 86,-137 48,-207 -21,-38 -45,-60 -84,-77 -21,-9 -147,-10 -1080,-10l-1056 0 -35 17zm2141 90c36,17 44,74 13,102l-18 16 -1045 0 -1045 0 -17 -17c-13,-13 -17,-24 -17,-45 0,-29 8,-43 30,-56 19,-11 2076,-11 2099,-1zm-1767 230c-2,6 -23,114 -48,240 -49,251 -51,288 -24,366l13 38 -131 0 -131 0 -22 -18c-30,-25 -37,-34 -52,-65 -22,-47 -18,-73 57,-323 38,-129 71,-238 73,-242 2,-6 35,-8 136,-8 124,0 133,1 130,12zm351 17c-8,57 -43,355 -50,420 -6,63 -3,121 10,186l4 22 -126 0c-142,0 -136,2 -161,-55 -29,-66 -29,-68 34,-394l40 -207 126 0 125 0 -4 28zm319 302l2 326 -124 -2 -124 -2 -9 -26c-20,-56 -17,-158 12,-393 15,-122 27,-224 27,-227 0,-4 44,-5 108,-4l108 2 2 326zm313 -326c0,2 11,91 23,197 13,107 26,219 29,251 7,62 -1,146 -16,183l-9 22 -120 0 -120 0 0 -328 0 -328 106 0c58,0 106,2 106,3zm351 0c0,2 20,104 44,227 54,272 57,320 25,383l-20 39 -131 2 -131 2 4 -18c2,-10 7,-44 12,-75 7,-52 5,-76 -20,-288 -15,-128 -29,-242 -31,-253l-4 -22 127 0c70,0 127,1 127,3zm438 239c50,166 72,249 72,272 0,43 -24,93 -59,121l-26 21 -132 0 -132 0 13 -35c8,-21 15,-57 16,-91 3,-50 -2,-82 -41,-282 -24,-124 -45,-231 -47,-237 -3,-11 5,-12 131,-10l134 2 72 239zm-54 580l0 66 -1000 0 -1000 0 0 -66 0 -66 1000 0 1000 0 0 66z"/>
    </clipPath>
 </defs>
 <g id="Слой_x0020_1">
  <metadata id="CorelCorpID_0Corel-Layer"/>
  <g id="_755106560">
   <path class="fil0" d="M1523 83c-89,12 -127,20 -178,37 -162,53 -302,161 -396,307 -45,70 -73,133 -97,222l-17 63 -2 442 -2 442 18 14c23,18 46,18 66,-2l16 -16 0 -378 0 -378 649 0 649 0 0 377c0,371 0,377 14,394 17,22 53,24 72,4 13,-13 13,-22 13,-429 0,-353 -2,-426 -11,-479 -11,-66 -40,-154 -67,-208 -102,-202 -305,-355 -523,-397 -55,-10 -170,-18 -204,-13zm10 337c0,130 -3,235 -6,235 -3,0 -85,-74 -182,-165l-176 -165 21 -16c83,-63 236,-121 321,-124l22 -1 0 235zm232 -211c65,19 146,58 193,93 27,20 31,26 24,32 -5,4 -84,79 -176,165 -92,86 -169,157 -171,157 -2,0 -3,-106 -3,-236l0 -236 38 5c21,3 63,12 94,21zm-486 355l178 167 -252 2c-138,1 -255,0 -259,-1 -17,-7 23,-141 64,-215 22,-40 80,-120 86,-120 2,0 84,75 182,167zm821 -124c54,72 103,183 119,270l4 25 -260 0 -260 0 33 -33c76,-76 325,-305 329,-303 3,1 18,19 35,41zm-1612 1346c-107,54 -119,212 -20,278l30 20 -69 228c-67,219 -70,231 -70,291 0,58 1,66 21,106 14,28 35,57 61,82l40 38 0 109c0,107 0,109 16,125l16 16 1067 0 1067 0 16 -16c16,-16 16,-18 16,-124l0 -107 43 -45c56,-58 77,-104 81,-173 3,-49 1,-58 -67,-286 -39,-129 -70,-238 -70,-241 0,-3 13,-15 28,-26 65,-46 86,-137 48,-207 -21,-38 -45,-60 -84,-77 -21,-9 -147,-10 -1080,-10l-1056 0 -35 17zm2141 90c36,17 44,74 13,102l-18 16 -1045 0 -1045 0 -17 -17c-13,-13 -17,-24 -17,-45 0,-29 8,-43 30,-56 19,-11 2076,-11 2099,-1zm-1767 230c-2,6 -23,114 -48,240 -49,251 -51,288 -24,366l13 38 -131 0 -131 0 -22 -18c-30,-25 -37,-34 -52,-65 -22,-47 -18,-73 57,-323 38,-129 71,-238 73,-242 2,-6 35,-8 136,-8 124,0 133,1 130,12zm351 17c-8,57 -43,355 -50,420 -6,63 -3,121 10,186l4 22 -126 0c-142,0 -136,2 -161,-55 -29,-66 -29,-68 34,-394l40 -207 126 0 125 0 -4 28zm319 302l2 326 -124 -2 -124 -2 -9 -26c-20,-56 -17,-158 12,-393 15,-122 27,-224 27,-227 0,-4 44,-5 108,-4l108 2 2 326zm313 -326c0,2 11,91 23,197 13,107 26,219 29,251 7,62 -1,146 -16,183l-9 22 -120 0 -120 0 0 -328 0 -328 106 0c58,0 106,2 106,3zm351 0c0,2 20,104 44,227 54,272 57,320 25,383l-20 39 -131 2 -131 2 4 -18c2,-10 7,-44 12,-75 7,-52 5,-76 -20,-288 -15,-128 -29,-242 -31,-253l-4 -22 127 0c70,0 127,1 127,3zm438 239c50,166 72,249 72,272 0,43 -24,93 -59,121l-26 21 -132 0 -132 0 13 -35c8,-21 15,-57 16,-91 3,-50 -2,-82 -41,-282 -24,-124 -45,-231 -47,-237 -3,-11 5,-12 131,-10l134 2 72 239zm-54 580l0 66 -1000 0 -1000 0 0 -66 0 -66 1000 0 1000 0 0 66z"/>
   <g style="clip-path:url(#id0)">
    <polygon class="fil1" points="357,81 2804,81 2804,3080 357,3080 "/>
   </g>
   <g style="clip-path:url(#id1)">
    <g>
     <path id="1" class="fil2 str0" d="M1523 83c-89,12 -127,20 -178,37 -162,53 -302,161 -396,307 -45,70 -73,133 -97,222l-17 63 -2 442 -2 442 18 14c23,18 46,18 66,-2l16 -16 0 -378 0 -378 649 0 649 0 0 377c0,371 0,377 14,394 17,22 53,24 72,4 13,-13 13,-22 13,-429 0,-353 -2,-426 -11,-479 -11,-66 -40,-154 -67,-208 -102,-202 -305,-355 -523,-397 -55,-10 -170,-18 -204,-13zm10 337c0,130 -3,235 -6,235 -3,0 -85,-74 -182,-165l-176 -165 21 -16c83,-63 236,-121 321,-124l22 -1 0 235zm232 -211c65,19 146,58 193,93 27,20 31,26 24,32 -5,4 -84,79 -176,165 -92,86 -169,157 -171,157 -2,0 -3,-106 -3,-236l0 -236 38 5c21,3 63,12 94,21zm-486 355l178 167 -252 2c-138,1 -255,0 -259,-1 -17,-7 23,-141 64,-215 22,-40 80,-120 86,-120 2,0 84,75 182,167zm821 -124c54,72 103,183 119,270l4 25 -260 0 -260 0 33 -33c76,-76 325,-305 329,-303 3,1 18,19 35,41zm-1612 1346c-107,54 -119,212 -20,278l30 20 -69 228c-67,219 -70,231 -70,291 0,58 1,66 21,106 14,28 35,57 61,82l40 38 0 109c0,107 0,109 16,125l16 16 1067 0 1067 0 16 -16c16,-16 16,-18 16,-124l0 -107 43 -45c56,-58 77,-104 81,-173 3,-49 1,-58 -67,-286 -39,-129 -70,-238 -70,-241 0,-3 13,-15 28,-26 65,-46 86,-137 48,-207 -21,-38 -45,-60 -84,-77 -21,-9 -147,-10 -1080,-10l-1056 0 -35 17zm2141 90c36,17 44,74 13,102l-18 16 -1045 0 -1045 0 -17 -17c-13,-13 -17,-24 -17,-45 0,-29 8,-43 30,-56 19,-11 2076,-11 2099,-1zm-1767 230c-2,6 -23,114 -48,240 -49,251 -51,288 -24,366l13 38 -131 0 -131 0 -22 -18c-30,-25 -37,-34 -52,-65 -22,-47 -18,-73 57,-323 38,-129 71,-238 73,-242 2,-6 35,-8 136,-8 124,0 133,1 130,12zm351 17c-8,57 -43,355 -50,420 -6,63 -3,121 10,186l4 22 -126 0c-142,0 -136,2 -161,-55 -29,-66 -29,-68 34,-394l40 -207 126 0 125 0 -4 28zm319 302l2 326 -124 -2 -124 -2 -9 -26c-20,-56 -17,-158 12,-393 15,-122 27,-224 27,-227 0,-4 44,-5 108,-4l108 2 2 326zm313 -326c0,2 11,91 23,197 13,107 26,219 29,251 7,62 -1,146 -16,183l-9 22 -120 0 -120 0 0 -328 0 -328 106 0c58,0 106,2 106,3zm351 0c0,2 20,104 44,227 54,272 57,320 25,383l-20 39 -131 2 -131 2 4 -18c2,-10 7,-44 12,-75 7,-52 5,-76 -20,-288 -15,-128 -29,-242 -31,-253l-4 -22 127 0c70,0 127,1 127,3zm438 239c50,166 72,249 72,272 0,43 -24,93 -59,121l-26 21 -132 0 -132 0 13 -35c8,-21 15,-57 16,-91 3,-50 -2,-82 -41,-282 -24,-124 -45,-231 -47,-237 -3,-11 5,-12 131,-10l134 2 72 239zm-54 580l0 66 -1000 0 -1000 0 0 -66 0 -66 1000 0 1000 0 0 66z"/>
    </g>
   </g>
   <path class="fil3" d="M1523 83c-89,12 -127,20 -178,37 -162,53 -302,161 -396,307 -45,70 -73,133 -97,222l-17 63 -2 442 -2 442 18 14c23,18 46,18 66,-2l16 -16 0 -378 0 -378 649 0 649 0 0 377c0,371 0,377 14,394 17,22 53,24 72,4 13,-13 13,-22 13,-429 0,-353 -2,-426 -11,-479 -11,-66 -40,-154 -67,-208 -102,-202 -305,-355 -523,-397 -55,-10 -170,-18 -204,-13zm10 337c0,130 -3,235 -6,235 -3,0 -85,-74 -182,-165l-176 -165 21 -16c83,-63 236,-121 321,-124l22 -1 0 235zm232 -211c65,19 146,58 193,93 27,20 31,26 24,32 -5,4 -84,79 -176,165 -92,86 -169,157 -171,157 -2,0 -3,-106 -3,-236l0 -236 38 5c21,3 63,12 94,21zm-486 355l178 167 -252 2c-138,1 -255,0 -259,-1 -17,-7 23,-141 64,-215 22,-40 80,-120 86,-120 2,0 84,75 182,167zm821 -124c54,72 103,183 119,270l4 25 -260 0 -260 0 33 -33c76,-76 325,-305 329,-303 3,1 18,19 35,41zm-1612 1346c-107,54 -119,212 -20,278l30 20 -69 228c-67,219 -70,231 -70,291 0,58 1,66 21,106 14,28 35,57 61,82l40 38 0 109c0,107 0,109 16,125l16 16 1067 0 1067 0 16 -16c16,-16 16,-18 16,-124l0 -107 43 -45c56,-58 77,-104 81,-173 3,-49 1,-58 -67,-286 -39,-129 -70,-238 -70,-241 0,-3 13,-15 28,-26 65,-46 86,-137 48,-207 -21,-38 -45,-60 -84,-77 -21,-9 -147,-10 -1080,-10l-1056 0 -35 17zm2141 90c36,17 44,74 13,102l-18 16 -1045 0 -1045 0 -17 -17c-13,-13 -17,-24 -17,-45 0,-29 8,-43 30,-56 19,-11 2076,-11 2099,-1zm-1767 230c-2,6 -23,114 -48,240 -49,251 -51,288 -24,366l13 38 -131 0 -131 0 -22 -18c-30,-25 -37,-34 -52,-65 -22,-47 -18,-73 57,-323 38,-129 71,-238 73,-242 2,-6 35,-8 136,-8 124,0 133,1 130,12zm351 17c-8,57 -43,355 -50,420 -6,63 -3,121 10,186l4 22 -126 0c-142,0 -136,2 -161,-55 -29,-66 -29,-68 34,-394l40 -207 126 0 125 0 -4 28zm319 302l2 326 -124 -2 -124 -2 -9 -26c-20,-56 -17,-158 12,-393 15,-122 27,-224 27,-227 0,-4 44,-5 108,-4l108 2 2 326zm313 -326c0,2 11,91 23,197 13,107 26,219 29,251 7,62 -1,146 -16,183l-9 22 -120 0 -120 0 0 -328 0 -328 106 0c58,0 106,2 106,3zm351 0c0,2 20,104 44,227 54,272 57,320 25,383l-20 39 -131 2 -131 2 4 -18c2,-10 7,-44 12,-75 7,-52 5,-76 -20,-288 -15,-128 -29,-242 -31,-253l-4 -22 127 0c70,0 127,1 127,3zm438 239c50,166 72,249 72,272 0,43 -24,93 -59,121l-26 21 -132 0 -132 0 13 -35c8,-21 15,-57 16,-91 3,-50 -2,-82 -41,-282 -24,-124 -45,-231 -47,-237 -3,-11 5,-12 131,-10l134 2 72 239zm-54 580l0 66 -1000 0 -1000 0 0 -66 0 -66 1000 0 1000 0 0 66z"/>
  </g>
  <rect class="fil3" width="3162" height="3162"/>
 </g>
</svg>
