<svg width="28" height="28" viewBox="0 0 28 28" fill="none" xmlns="http://www.w3.org/2000/svg">
<path d="M22.5714 4.71429H18.7143V3.85714C18.7143 3.62981 18.624 3.4118 18.4632 3.25105C18.3025 3.09031 18.0845 3 17.8571 3C17.6298 3 17.4118 3.09031 17.2511 3.25105C17.0903 3.4118 17 3.62981 17 3.85714V4.71429H11V3.85714C11 3.62981 10.9097 3.4118 10.7489 3.25105C10.5882 3.09031 10.3702 3 10.1429 3C9.91553 3 9.69751 3.09031 9.53677 3.25105C9.37602 3.4118 9.28571 3.62981 9.28571 3.85714V4.71429H5.42857C4.51958 4.71533 3.64811 5.07689 3.00536 5.71964C2.3626 6.3624 2.00104 7.23386 2 8.14286V21.8571C2.00104 22.7661 2.3626 23.6376 3.00536 24.2804C3.64811 24.9231 4.51958 25.2847 5.42857 25.2857H22.5714C23.4804 25.2847 24.3519 24.9231 24.9946 24.2804C25.6374 23.6376 25.999 22.7661 26 21.8571V8.14286C25.999 7.23386 25.6374 6.3624 24.9946 5.71964C24.3519 5.07689 23.4804 4.71533 22.5714 4.71429ZM5.42857 6.42857H9.28571V7.28571C9.28571 7.51304 9.37602 7.73106 9.53677 7.89181C9.69751 8.05255 9.91553 8.14286 10.1429 8.14286C10.3702 8.14286 10.5882 8.05255 10.7489 7.89181C10.9097 7.73106 11 7.51304 11 7.28571V6.42857H17V7.28571C17 7.51304 17.0903 7.73106 17.2511 7.89181C17.4118 8.05255 17.6298 8.14286 17.8571 8.14286C18.0845 8.14286 18.3025 8.05255 18.4632 7.89181C18.624 7.73106 18.7143 7.51304 18.7143 7.28571V6.42857H22.5714C23.0259 6.42908 23.4617 6.60986 23.783 6.93124C24.1044 7.25262 24.2852 7.68836 24.2857 8.14286V9.85714H3.71429V8.14286C3.7148 7.68836 3.89557 7.25262 4.21695 6.93124C4.53833 6.60986 4.97407 6.42908 5.42857 6.42857ZM22.5714 23.5714H5.42857C4.97407 23.5709 4.53833 23.3901 4.21695 23.0688C3.89557 22.7474 3.7148 22.3116 3.71429 21.8571V11.5714H24.2857V21.8571C24.2852 22.3116 24.1044 22.7474 23.783 23.0688C23.4617 23.3901 23.0259 23.5709 22.5714 23.5714Z" fill="#0093DD"/>
<path d="M8.00005 13.2856H7.14291C6.91558 13.2856 6.69756 13.3759 6.53682 13.5367C6.37607 13.6974 6.28577 13.9155 6.28577 14.1428C6.28577 14.3701 6.37607 14.5881 6.53682 14.7489C6.69756 14.9096 6.91558 14.9999 7.14291 14.9999H8.00005C8.22738 14.9999 8.4454 14.9096 8.60614 14.7489C8.76689 14.5881 8.8572 14.3701 8.8572 14.1428C8.8572 13.9155 8.76689 13.6974 8.60614 13.5367C8.4454 13.3759 8.22738 13.2856 8.00005 13.2856Z" fill="#0093DD"/>
<path d="M12.2857 13.2856H11.4286C11.2012 13.2856 10.9832 13.3759 10.8225 13.5367C10.6617 13.6974 10.5714 13.9155 10.5714 14.1428C10.5714 14.3701 10.6617 14.5881 10.8225 14.7489C10.9832 14.9096 11.2012 14.9999 11.4286 14.9999H12.2857C12.513 14.9999 12.731 14.9096 12.8918 14.7489C13.0525 14.5881 13.1428 14.3701 13.1428 14.1428C13.1428 13.9155 13.0525 13.6974 12.8918 13.5367C12.731 13.3759 12.513 13.2856 12.2857 13.2856Z" fill="#0093DD"/>
<path d="M20.8571 13.2856H20C19.7726 13.2856 19.5546 13.3759 19.3939 13.5367C19.2331 13.6974 19.1428 13.9155 19.1428 14.1428C19.1428 14.3701 19.2331 14.5881 19.3939 14.7489C19.5546 14.9096 19.7726 14.9999 20 14.9999H20.8571C21.0844 14.9999 21.3025 14.9096 21.4632 14.7489C21.6239 14.5881 21.7143 14.3701 21.7143 14.1428C21.7143 13.9155 21.6239 13.6974 21.4632 13.5367C21.3025 13.3759 21.0844 13.2856 20.8571 13.2856Z" fill="#0093DD"/>
<path d="M16.5715 13.2856H15.7143C15.487 13.2856 15.269 13.3759 15.1082 13.5367C14.9475 13.6974 14.8572 13.9155 14.8572 14.1428C14.8572 14.3701 14.9475 14.5881 15.1082 14.7489C15.269 14.9096 15.487 14.9999 15.7143 14.9999H16.5715C16.7988 14.9999 17.0168 14.9096 17.1776 14.7489C17.3383 14.5881 17.4286 14.3701 17.4286 14.1428C17.4286 13.9155 17.3383 13.6974 17.1776 13.5367C17.0168 13.3759 16.7988 13.2856 16.5715 13.2856Z" fill="#0093DD"/>
<path d="M8.00005 20.1428H7.14291C6.91558 20.1428 6.69756 20.2331 6.53682 20.3939C6.37607 20.5546 6.28577 20.7726 6.28577 21C6.28577 21.2273 6.37607 21.4453 6.53682 21.6061C6.69756 21.7668 6.91558 21.8571 7.14291 21.8571H8.00005C8.22738 21.8571 8.4454 21.7668 8.60614 21.6061C8.76689 21.4453 8.8572 21.2273 8.8572 21C8.8572 20.7726 8.76689 20.5546 8.60614 20.3939C8.4454 20.2331 8.22738 20.1428 8.00005 20.1428Z" fill="#0093DD"/>
<path d="M12.2857 20.1428H11.4286C11.2012 20.1428 10.9832 20.2331 10.8225 20.3939C10.6617 20.5546 10.5714 20.7726 10.5714 21C10.5714 21.2273 10.6617 21.4453 10.8225 21.6061C10.9832 21.7668 11.2012 21.8571 11.4286 21.8571H12.2857C12.513 21.8571 12.731 21.7668 12.8918 21.6061C13.0525 21.4453 13.1428 21.2273 13.1428 21C13.1428 20.7726 13.0525 20.5546 12.8918 20.3939C12.731 20.2331 12.513 20.1428 12.2857 20.1428Z" fill="#0093DD"/>
<path d="M20.8571 20.1428H20C19.7726 20.1428 19.5546 20.2331 19.3939 20.3939C19.2331 20.5546 19.1428 20.7726 19.1428 21C19.1428 21.2273 19.2331 21.4453 19.3939 21.6061C19.5546 21.7668 19.7726 21.8571 20 21.8571H20.8571C21.0844 21.8571 21.3025 21.7668 21.4632 21.6061C21.6239 21.4453 21.7143 21.2273 21.7143 21C21.7143 20.7726 21.6239 20.5546 21.4632 20.3939C21.3025 20.2331 21.0844 20.1428 20.8571 20.1428Z" fill="#0093DD"/>
<path d="M16.5715 20.1428H15.7143C15.487 20.1428 15.269 20.2331 15.1082 20.3939C14.9475 20.5546 14.8572 20.7726 14.8572 21C14.8572 21.2273 14.9475 21.4453 15.1082 21.6061C15.269 21.7668 15.487 21.8571 15.7143 21.8571H16.5715C16.7988 21.8571 17.0168 21.7668 17.1776 21.6061C17.3383 21.4453 17.4286 21.2273 17.4286 21C17.4286 20.7726 17.3383 20.5546 17.1776 20.3939C17.0168 20.2331 16.7988 20.1428 16.5715 20.1428Z" fill="#0093DD"/>
<path d="M8.00005 16.7144H7.14291C6.91558 16.7144 6.69756 16.8047 6.53682 16.9654C6.37607 17.1262 6.28577 17.3442 6.28577 17.5715C6.28577 17.7988 6.37607 18.0168 6.53682 18.1776C6.69756 18.3383 6.91558 18.4286 7.14291 18.4286H8.00005C8.22738 18.4286 8.4454 18.3383 8.60614 18.1776C8.76689 18.0168 8.8572 17.7988 8.8572 17.5715C8.8572 17.3442 8.76689 17.1262 8.60614 16.9654C8.4454 16.8047 8.22738 16.7144 8.00005 16.7144Z" fill="#0093DD"/>
<path d="M12.2857 16.7144H11.4286C11.2012 16.7144 10.9832 16.8047 10.8225 16.9654C10.6617 17.1262 10.5714 17.3442 10.5714 17.5715C10.5714 17.7988 10.6617 18.0168 10.8225 18.1776C10.9832 18.3383 11.2012 18.4286 11.4286 18.4286H12.2857C12.513 18.4286 12.731 18.3383 12.8918 18.1776C13.0525 18.0168 13.1428 17.7988 13.1428 17.5715C13.1428 17.3442 13.0525 17.1262 12.8918 16.9654C12.731 16.8047 12.513 16.7144 12.2857 16.7144Z" fill="#0093DD"/>
<path d="M20.8571 16.7144H20C19.7726 16.7144 19.5546 16.8047 19.3939 16.9654C19.2331 17.1262 19.1428 17.3442 19.1428 17.5715C19.1428 17.7988 19.2331 18.0168 19.3939 18.1776C19.5546 18.3383 19.7726 18.4286 20 18.4286H20.8571C21.0844 18.4286 21.3025 18.3383 21.4632 18.1776C21.6239 18.0168 21.7143 17.7988 21.7143 17.5715C21.7143 17.3442 21.6239 17.1262 21.4632 16.9654C21.3025 16.8047 21.0844 16.7144 20.8571 16.7144Z" fill="#0093DD"/>
<path d="M16.5715 16.7144H15.7143C15.487 16.7144 15.269 16.8047 15.1082 16.9654C14.9475 17.1262 14.8572 17.3442 14.8572 17.5715C14.8572 17.7988 14.9475 18.0168 15.1082 18.1776C15.269 18.3383 15.487 18.4286 15.7143 18.4286H16.5715C16.7988 18.4286 17.0168 18.3383 17.1776 18.1776C17.3383 18.0168 17.4286 17.7988 17.4286 17.5715C17.4286 17.3442 17.3383 17.1262 17.1776 16.9654C17.0168 16.8047 16.7988 16.7144 16.5715 16.7144Z" fill="#0093DD"/>
</svg>
