<svg width="21" height="17" viewBox="0 0 21 17" fill="none" xmlns="http://www.w3.org/2000/svg">
<path d="M17.8938 1.29737e-05C17.4858 -0.00123607 17.0816 0.0877155 16.7046 0.261711C16.3276 0.435706 15.9854 0.691284 15.6979 1.01363L8.8398 8.64916L5.31921 4.72883C5.03158 4.40367 4.68901 4.14511 4.31123 3.96806C3.93345 3.79101 3.52794 3.69896 3.11807 3.69722C2.70819 3.69549 2.30207 3.78409 1.92309 3.95794C1.54411 4.13179 1.19978 4.38743 0.909934 4.71015C0.620091 5.03286 0.390467 5.41626 0.234301 5.83825C0.0781343 6.26023 -0.00148829 6.71246 2.10633e-05 7.16887C0.00153041 7.62528 0.0841429 8.07685 0.243096 8.49754C0.40205 8.91824 0.634201 9.29974 0.926171 9.62007L6.64328 15.9863C6.93165 16.3077 7.27407 16.5626 7.65096 16.7365C8.02785 16.9105 8.43183 17 8.8398 17C9.24778 17 9.65175 16.9105 10.0286 16.7365C10.4055 16.5626 10.7479 16.3077 11.0363 15.9863L20.0904 5.90547C20.5247 5.42165 20.8205 4.80528 20.9403 4.13428C21.0602 3.46329 20.9986 2.7678 20.7635 2.13574C20.5285 1.50367 20.1303 0.963417 19.6195 0.583269C19.1087 0.203121 18.5082 0.000148825 17.8938 1.29737e-05ZM18.7539 4.41602L9.69821 14.4981C9.46653 14.744 9.15877 14.8811 8.83872 14.8811C8.51868 14.8811 8.21091 14.744 7.97924 14.4981L2.26321 8.13182C2.15034 8.00614 2.06081 7.85693 1.99972 7.69272C1.93864 7.5285 1.9072 7.3525 1.9072 7.17475C1.9072 6.99701 1.93864 6.821 1.99972 6.65679C2.06081 6.49257 2.15034 6.34336 2.26321 6.21768C2.37608 6.09199 2.51007 5.9923 2.65754 5.92428C2.80501 5.85626 2.96307 5.82125 3.12269 5.82125C3.28231 5.82125 3.44037 5.85626 3.58784 5.92428C3.73531 5.9923 3.86931 6.09199 3.98217 6.21768L8.17155 10.8821C8.25926 10.9799 8.36343 11.0576 8.47809 11.1105C8.59276 11.1634 8.71567 11.1907 8.8398 11.1907C8.96393 11.1907 9.08685 11.1634 9.20151 11.1105C9.31618 11.0576 9.42034 10.9799 9.50805 10.8821L17.0354 2.50128C17.2667 2.25475 17.5745 2.11714 17.8946 2.11714C18.2148 2.11714 18.5226 2.25475 18.7539 2.50128C18.8667 2.62691 18.9562 2.77607 19.0173 2.94023C19.0784 3.1044 19.1098 3.28035 19.1098 3.45805C19.1098 3.63574 19.0784 3.8117 19.0173 3.97586C18.9562 4.14003 18.8667 4.28919 18.7539 4.41482V4.41602Z" fill="#0093DD"/>
</svg>
