<svg width="24" height="24" viewBox="0 0 24 24" fill="none" xmlns="http://www.w3.org/2000/svg">
<path d="M20.6087 1.47827H3.39129C2.07322 1.47827 1 2.55149 1 3.86955V14.3913C1 15.7094 2.07322 16.7826 3.39129 16.7826H5.30435C5.56835 16.7826 5.78262 16.5683 5.78262 16.3043C5.78262 16.0403 5.56835 15.826 5.30435 15.826H3.39129C2.60023 15.826 1.95651 15.1823 1.95651 14.3912V3.86955C1.95651 3.0785 2.60023 2.43478 3.39129 2.43478H20.6087C21.3997 2.43478 22.0435 3.0785 22.0435 3.86955V14.3913C22.0435 15.1823 21.3997 15.8261 20.6087 15.8261H18.6956C18.4316 15.8261 18.2173 16.0403 18.2173 16.3043C18.2173 16.5683 18.4316 16.7826 18.6956 16.7826H20.6087C21.9267 16.7826 23 15.7094 23 14.3913V3.86955C23 2.55149 21.9268 1.47827 20.6087 1.47827Z" fill="white"/>
<path d="M20.9971 3.58928C20.8421 3.375 20.5437 3.32622 20.3294 3.48216L12.8972 8.84919C12.3529 9.24232 11.648 9.24232 11.1037 8.84919L3.67157 3.48216C3.45636 3.32626 3.15792 3.37505 3.00391 3.58928C2.84895 3.80355 2.89679 4.10293 3.11102 4.25694L10.5432 9.62397C10.9784 9.93868 11.4892 10.0965 12 10.0965C12.5108 10.0965 13.0216 9.93962 13.4577 9.62397L20.8899 4.25694C21.1032 4.10293 21.152 3.80355 20.9971 3.58928Z" fill="white"/>
<path d="M8.51157 9.27103C8.32505 9.0845 8.02182 9.0845 7.8353 9.27103L3.05267 14.0537C2.86615 14.2402 2.86615 14.5434 3.05267 14.7299C3.14643 14.8227 3.26883 14.8696 3.39128 14.8696C3.51373 14.8696 3.63614 14.8227 3.72895 14.7299L8.51157 9.9473C8.69809 9.76078 8.69809 9.45755 8.51157 9.27103Z" fill="white"/>
<path d="M20.9463 14.0537L16.1637 9.27103C15.9772 9.0845 15.6739 9.0845 15.4874 9.27103C15.3009 9.45755 15.3009 9.76078 15.4874 9.9473L20.2701 14.7299C20.3638 14.8227 20.4862 14.8696 20.6087 14.8696C20.7311 14.8696 20.8535 14.8227 20.9463 14.7299C21.1328 14.5434 21.1328 14.2402 20.9463 14.0537Z" fill="white"/>
<path d="M12 12C9.09886 12 6.73914 14.3597 6.73914 17.2609C6.73914 20.162 9.09886 22.5217 12 22.5217C13.3736 22.5217 14.6725 21.9966 15.6577 21.042C15.8481 20.8583 15.8529 20.5551 15.6692 20.3657C15.4856 20.1754 15.1833 20.1725 14.9929 20.3542C14.1866 21.1357 13.1229 21.5652 12 21.5652C9.62686 21.5652 7.69564 19.6339 7.69564 17.2608C7.69564 14.8877 9.62686 12.9565 12 12.9565C14.3731 12.9565 16.3043 14.8877 16.3043 17.2608C16.3043 17.5248 16.5186 17.7391 16.7826 17.7391C17.0466 17.7391 17.2609 17.5248 17.2609 17.2608C17.2609 14.3597 14.9011 12 12 12Z" fill="white"/>
<path d="M11.9999 14.8695C10.6819 14.8695 9.60864 15.9428 9.60864 17.2608C9.60864 18.5789 10.6819 19.6522 11.9999 19.6522C13.318 19.6522 14.3912 18.5789 14.3912 17.2609C14.3912 15.9428 13.318 14.8695 11.9999 14.8695ZM11.9999 18.6957C11.2089 18.6957 10.5651 18.0519 10.5651 17.2609C10.5651 16.4698 11.2089 15.8261 11.9999 15.8261C12.791 15.8261 13.4347 16.4698 13.4347 17.2609C13.4347 18.0519 12.791 18.6957 11.9999 18.6957Z" fill="white"/>
<path d="M16.7827 16.7826C16.5187 16.7826 16.3044 16.9969 16.3044 17.2609C16.3044 18.3341 16.0633 18.6956 15.3479 18.6956C14.7128 18.6956 14.3914 18.2126 14.3914 17.2609C14.3914 16.9969 14.1771 16.7826 13.9131 16.7826C13.6491 16.7826 13.4348 16.9969 13.4348 17.2609C13.4348 18.7578 14.1503 19.6522 15.3479 19.6522C17.2609 19.6522 17.2609 17.852 17.2609 17.2609C17.2609 16.9969 17.0467 16.7826 16.7827 16.7826Z" fill="white"/>
</svg>
