<svg width="48" height="48" viewBox="0 0 48 48" fill="none" xmlns="http://www.w3.org/2000/svg">
<path fill-rule="evenodd" clip-rule="evenodd" d="M12.9064 38.7418C16.0889 41.2029 19.9116 42.518 23.972 42.5744C34.0499 42.5744 42.2622 34.1389 42.2622 23.7872C42.2622 13.4355 34.0499 5 23.972 5C19.1068 5 14.5343 6.95387 11.0774 10.5046C7.63886 14.0366 5.73668 18.7522 5.68181 23.7684C5.62694 28.3901 7.27306 32.8238 10.2909 36.2807C10.5836 36.6189 11.0957 36.6376 11.4066 36.337C11.7359 36.0365 11.7542 35.5104 11.4615 35.191C8.71798 32.0536 7.21819 28.0143 7.27306 23.806C7.32793 19.2219 9.06549 14.9009 12.2114 11.6695C15.3573 8.41927 19.5275 6.63449 23.972 6.63449C33.172 6.63449 40.6709 14.3372 40.6709 23.7872C40.6709 33.2372 33.172 40.9399 23.972 40.9399C20.2591 40.9023 16.7657 39.6812 13.8392 37.4267C13.4917 37.1637 12.9979 37.22 12.7235 37.5958C12.4675 37.9527 12.5223 38.46 12.8881 38.7418H12.9064Z" fill="#0093DD"/>
<path d="M17.1322 29.1791H14.4985C13.4883 29.1791 12.6694 29.7217 12.6694 30.3909C12.6694 31.0602 13.4883 31.6027 14.4985 31.6027H17.1322C18.1424 31.6027 18.9613 31.0602 18.9613 30.3909C18.9613 29.7217 18.1424 29.1791 17.1322 29.1791Z" fill="#666666"/>
<path d="M16.711 17.8693H15.1381C14.9865 17.8693 14.8637 17.9703 14.8637 18.0948V21.1383C14.8637 21.2628 14.9865 21.3637 15.1381 21.3637H16.711C16.8625 21.3637 16.9854 21.2628 16.9854 21.1383V18.0948C16.9854 17.9703 16.8625 17.8693 16.711 17.8693Z" fill="#0093DD"/>
<path d="M19.9303 17.8693H18.3574C18.2058 17.8693 18.083 17.9703 18.083 18.0948V21.1383C18.083 21.2628 18.2058 21.3637 18.3574 21.3637H19.9303C20.0818 21.3637 20.2047 21.2628 20.2047 21.1383V18.0948C20.2047 17.9703 20.0818 17.8693 19.9303 17.8693Z" fill="#0093DD"/>
<path d="M23.1675 17.8693H21.5945C21.443 17.8693 21.3202 17.9703 21.3202 18.0948V21.1383C21.3202 21.2628 21.443 21.3637 21.5945 21.3637H23.1675C23.319 21.3637 23.4419 21.2628 23.4419 21.1383V18.0948C23.4419 17.9703 23.319 17.8693 23.1675 17.8693Z" fill="#0093DD"/>
<path d="M26.3867 17.8693H24.8138C24.6623 17.8693 24.5394 17.9703 24.5394 18.0948V21.1383C24.5394 21.2628 24.6623 21.3637 24.8138 21.3637H26.3867C26.5383 21.3637 26.6611 21.2628 26.6611 21.1383V18.0948C26.6611 17.9703 26.5383 17.8693 26.3867 17.8693Z" fill="#0093DD"/>
<path d="M29.606 17.8693H28.0331C27.8816 17.8693 27.7587 17.9703 27.7587 18.0948V21.1383C27.7587 21.2628 27.8816 21.3637 28.0331 21.3637H29.606C29.7576 21.3637 29.8804 21.2628 29.8804 21.1383V18.0948C29.8804 17.9703 29.7576 17.8693 29.606 17.8693Z" fill="#0093DD"/>
<path d="M32.8253 17.8693H31.2523C31.1008 17.8693 30.978 17.9703 30.978 18.0948V21.1383C30.978 21.2628 31.1008 21.3637 31.2523 21.3637H32.8253C32.9768 21.3637 33.0996 21.2628 33.0996 21.1383V18.0948C33.0996 17.9703 32.9768 17.8693 32.8253 17.8693Z" fill="#0093DD"/>
<path d="M23.9726 32.1663C25.3767 32.1663 26.5149 30.9972 26.5149 29.5549C26.5149 28.1127 25.3767 26.9435 23.9726 26.9435C22.5685 26.9435 21.4302 28.1127 21.4302 29.5549C21.4302 30.9972 22.5685 32.1663 23.9726 32.1663Z" fill="#666666"/>
<path d="M32.3127 32.0724C32.9895 32.0724 33.5381 31.5088 33.5381 30.8136C33.5381 30.1184 32.9895 29.5549 32.3127 29.5549C31.6359 29.5549 31.0872 30.1184 31.0872 30.8136C31.0872 31.5088 31.6359 32.0724 32.3127 32.0724Z" fill="#666666"/>
<path d="M32.3131 27.7701C33.1361 27.7701 33.8677 28.1083 34.3981 28.6531C34.9286 29.1979 35.2578 29.9682 35.2578 30.7948C35.2578 31.6402 34.9286 32.3917 34.3981 32.9366C33.8677 33.4814 33.1178 33.8196 32.3131 33.8196C31.49 33.8196 30.7584 33.4814 30.228 32.9366C29.6976 32.3917 29.3683 31.6215 29.3683 30.7948C29.3683 29.9494 29.6976 29.1979 30.228 28.6531C30.7584 28.1083 31.5083 27.7701 32.3131 27.7701ZM34.0141 29.0476C33.5751 28.5967 32.9715 28.3149 32.3131 28.3149C31.6546 28.3149 31.0328 28.5967 30.6121 29.0476C30.1731 29.4985 29.8988 30.1185 29.8988 30.7948C29.8988 31.4712 30.1731 32.1099 30.6121 32.542C31.051 32.9929 31.6546 33.2747 32.3131 33.2747C32.9715 33.2747 33.5934 32.9929 34.0141 32.542C34.453 32.0911 34.7274 31.4712 34.7274 30.7948C34.7274 30.1185 34.453 29.4797 34.0141 29.0476Z" fill="#666666"/>
<path fill-rule="evenodd" clip-rule="evenodd" d="M32.3125 30.1936L31.837 30.3815L31.5626 29.1791L32.3125 30.1936Z" fill="#0093DD"/>
<path d="M32.404 30.4378L31.9285 30.6257L31.6541 30.7384L31.581 30.4378L31.3249 29.2354L31.0505 28.0518L31.7639 29.0288L32.5138 30.0433L32.6967 30.3063L32.404 30.4378Z" fill="#666666"/>
<path d="M6.68825 27.7324H2.70099C2.22544 27.7324 1.80477 27.5445 1.49383 27.2252C1.1829 26.9058 1 26.4737 1 25.9852V20.7811C1 20.2927 1.1829 19.8606 1.49383 19.5412C1.80477 19.2218 2.22544 19.0339 2.70099 19.0339H6.68825V20.6121H2.70099C2.66441 20.6121 2.62783 20.6308 2.59125 20.6684C2.55467 20.706 2.53638 20.7436 2.53638 20.7811V25.9852C2.53638 26.0228 2.55467 26.0603 2.59125 26.0979C2.62783 26.1355 2.66441 26.1543 2.70099 26.1543H6.68825V27.7324Z" fill="#0093DD"/>
<path d="M14.0774 15.5021H34.0502C34.4709 15.5021 34.8367 15.6712 35.1111 15.953C35.3854 16.2348 35.55 16.6106 35.55 17.0427V22.6601C35.55 23.0734 35.3854 23.4679 35.1111 23.7497C34.8367 24.0315 34.4709 24.2006 34.0502 24.2006H14.0774C13.5104 24.2006 12.9799 23.9564 12.6141 23.5806C12.23 23.1861 12.0106 22.6601 12.0106 22.0777V17.6627C12.0106 17.0803 12.2483 16.5354 12.6141 16.1597C12.9982 15.7652 13.5104 15.5397 14.0774 15.5397V15.5021ZM34.0137 17.0803H14.0774C13.931 17.0803 13.803 17.1366 13.6933 17.2493C13.6018 17.3433 13.5286 17.4936 13.5286 17.6439V22.0589C13.5286 22.2092 13.5835 22.3407 13.6933 22.4534C13.7847 22.5473 13.931 22.6225 14.0774 22.6225H34.0137V17.099V17.0803Z" fill="#666666"/>
<path d="M41.3118 26.1543H45.299C45.3356 26.1543 45.3722 26.1355 45.4088 26.0979C45.4454 26.0603 45.4636 26.0228 45.4636 25.9852V20.7811C45.4636 20.7436 45.4454 20.706 45.4088 20.6684C45.3722 20.6308 45.3356 20.6121 45.299 20.6121H41.3118V19.0339H45.299C45.7746 19.0339 46.1952 19.2218 46.5062 19.5412C46.8171 19.8606 47 20.2927 47 20.7811V25.9852C47 26.4737 46.8171 26.9058 46.5062 27.2252C46.1952 27.5445 45.7746 27.7324 45.299 27.7324H41.3118V26.1543Z" fill="#0093DD"/>
</svg>
