<?xml version="1.0" encoding="UTF-8"?>
<!DOCTYPE svg PUBLIC "-//W3C//DTD SVG 1.1//EN" "http://www.w3.org/Graphics/SVG/1.1/DTD/svg11.dtd">
<!-- Creator: CorelDRAW X6 -->
<svg xmlns="http://www.w3.org/2000/svg" xml:space="preserve" width="31.617mm" height="31.617mm" version="1.1" style="shape-rendering:geometricPrecision; text-rendering:geometricPrecision; image-rendering:optimizeQuality; fill-rule:evenodd; clip-rule:evenodd"
viewBox="0 0 3162 3162"
 xmlns:xlink="http://www.w3.org/1999/xlink">
 <defs>
  <style type="text/css">
   <![CDATA[
    .fil1 {fill:none}
    .fil0 {fill:#ffffff}
   ]]>
  </style>
 </defs>
 <g id="Слой_x0020_1">
  <metadata id="CorelCorpID_0Corel-Layer"/>
  <path class="fil0" d="M557 86c-125,30 -225,164 -270,363 -13,55 -13,60 -13,689l0 634 16 33c30,63 89,106 158,113 30,3 47,0 104,-17 13,-4 13,-3 15,83 2,78 3,90 16,116 32,65 92,104 165,108 101,5 181,-59 199,-160 4,-19 6,-103 6,-189 0,-85 1,-154 3,-154 2,0 13,4 25,10 14,6 38,10 66,10 76,0 139,-39 173,-106l17 -34 2 -218 2 -218 676 -2c674,-2 676,-2 709,-14 54,-20 110,-65 147,-116l17 -23 0 71c0,58 -2,77 -12,104 -15,40 -58,86 -98,105 -28,13 -30,13 -465,16 -477,4 -462,3 -528,39 -66,36 -113,92 -137,165l-13 40 -32 2c-62,3 -70,16 -70,122l0 72 -33 0c-27,0 -35,3 -47,14l-14 14 0 648c0,629 0,648 11,662l11 14 218 0 218 0 11 -14c11,-13 11,-33 11,-662l0 -648 -14 -14c-12,-12 -20,-14 -47,-14l-33 0 0 -73c0,-103 -9,-120 -60,-120 -32,0 -33,-3 -17,-39 15,-34 54,-71 93,-89l33 -16 440 -3c432,-3 441,-3 473,-16 98,-37 164,-111 190,-212 8,-32 9,-77 7,-349 -2,-291 -3,-316 -15,-365 -40,-173 -117,-291 -222,-342l-47 -22 -1012 -1c-575,-1 -1022,1 -1034,4zm110 105c62,28 118,106 152,209 59,184 34,414 -61,554 -28,41 -52,62 -93,81 -82,38 -168,-10 -228,-126 -46,-89 -66,-179 -66,-294 0,-163 43,-294 126,-381 47,-50 117,-67 171,-43zm1941 3c105,50 179,223 179,421 0,186 -69,356 -169,414l-27 16 -891 2 -891 2 10 -13c101,-140 145,-310 128,-496 -11,-119 -43,-214 -105,-311l-31 -48 884 0 884 0 29 14zm-2051 193c-66,44 -104,160 -89,273 12,92 45,157 95,182 98,50 188,-57 189,-224 1,-147 -57,-243 -147,-243 -20,0 -35,4 -48,13zm70 100c39,63 39,197 0,252 -15,21 -26,21 -38,-2 -37,-71 -34,-199 4,-253 15,-21 19,-20 33,3zm-198 578c36,34 65,53 104,68 32,12 44,13 322,14l289 2 -2 206c-2,205 -2,207 -16,229 -27,43 -90,59 -130,32 -11,-7 -26,-22 -33,-33 -12,-18 -13,-26 -13,-107l0 -87 -50 0 -50 0 0 326c0,313 0,327 -12,348 -28,55 -99,69 -145,28 -37,-32 -37,-35 -37,-259l0 -203 -46 0 -46 0 -3 64c-3,74 -13,96 -51,117 -46,26 -104,10 -129,-34 -12,-22 -12,-26 -12,-402l0 -380 17 23c9,13 29,34 43,48zm1196 614l0 50 -47 0 -47 0 0 -50 0 -50 47 0 47 0 0 50zm100 725l0 581 -147 0 -147 0 0 -581 0 -581 147 0 147 0 0 581zm-194 437l0 50 47 0 47 0 0 -50 0 -50 -47 0 -47 0 0 50z"/>
  <rect class="fil1" width="3162" height="3162"/>
 </g>
</svg>
