<?xml version="1.0" encoding="UTF-8"?>
<!DOCTYPE svg PUBLIC "-//W3C//DTD SVG 1.1//EN" "http://www.w3.org/Graphics/SVG/1.1/DTD/svg11.dtd">
<!-- Creator: CorelDRAW X6 -->
<svg xmlns="http://www.w3.org/2000/svg" xml:space="preserve" width="31.617mm" height="31.617mm" version="1.1" style="shape-rendering:geometricPrecision; text-rendering:geometricPrecision; image-rendering:optimizeQuality; fill-rule:evenodd; clip-rule:evenodd"
viewBox="0 0 3162 3162"
 xmlns:xlink="http://www.w3.org/1999/xlink">
 <defs>
  <style type="text/css">
   <![CDATA[
    .str0 {stroke:#ffffff;stroke-width:5.29}
    .fil3 {fill:none}
    .fil2 {fill:none}
    .fil0 {fill:#ffffff}
    .fil1 {fill:black;fill-opacity:0.000000}
   ]]>
  </style>
    <clipPath id="id0">
     <path d="M1130 385l0 304 -26 15c-52,31 -82,98 -69,156 9,39 36,78 69,97l26 15 0 64c0,60 -1,65 -14,79 -13,14 -18,14 -79,14l-64 0 -15 -26c-19,-32 -57,-59 -97,-69 -58,-13 -122,14 -154,66l-18 29 -304 0 -304 0 0 451 0 451 304 0 304 0 18 29c30,48 90,76 143,68 40,-6 85,-35 105,-68l18 -29 264 0 264 0 101 -101c56,-56 101,-98 101,-95 0,3 -7,44 -15,91 -8,47 -15,90 -15,95 0,10 16,10 257,10l257 0 15 26c19,32 57,59 97,69 58,13 122,-14 154,-66l18 -29 304 0 304 0 0 -451 0 -451 -304 0 -304 0 -18 -29c-30,-48 -90,-76 -143,-68 -40,6 -85,35 -105,68l-18 29 -64 0c-60,0 -65,-1 -78,-14 -14,-13 -14,-18 -14,-78l0 -64 29 -18c48,-30 76,-90 68,-143 -6,-40 -35,-85 -68,-105l-29 -18 0 -304 0 -304 -451 0 -451 0 0 304zm802 45l0 249 -351 0 -351 0 0 -249 0 -249 351 0 351 0 0 249zm60 355c17,5 25,11 32,26 9,19 9,22 0,40 -7,15 -15,22 -32,26 -31,9 -793,9 -823,0 -17,-5 -25,-11 -32,-26 -9,-19 -9,-22 0,-40 7,-14 15,-22 29,-26 28,-8 798,-8 826,0zm-60 265c0,59 2,69 15,96 17,34 40,56 76,72 18,8 38,11 89,11l66 0 0 351 0 351 -193 0c-132,0 -193,-2 -193,-6 0,-7 57,-353 62,-374 2,-10 -60,48 -195,183l-198 198 -239 0 -239 0 0 -351 0 -351 66 0c59,0 69,-2 96,-15 34,-17 56,-40 72,-76 8,-18 11,-38 11,-89l0 -66 351 0 351 0 0 66zm-1078 89c11,6 19,16 23,31 8,30 8,793 0,823 -5,17 -11,25 -26,32 -19,9 -22,9 -40,0 -16,-7 -22,-15 -27,-33 -4,-16 -6,-151 -5,-423 2,-428 1,-417 31,-431 17,-8 25,-8 44,2zm1499 0c11,6 19,16 23,31 8,30 8,793 0,823 -5,17 -11,25 -26,32 -19,9 -22,9 -40,0 -15,-7 -22,-15 -26,-32 -8,-30 -9,-793 0,-823 4,-14 12,-25 22,-31 20,-11 27,-11 48,0zm-1675 442l0 351 -249 0 -249 0 0 -351 0 -351 249 0 249 0 0 351zm2302 0l0 351 -249 0 -249 0 0 -351 0 -351 249 0 249 0 0 351zm-1451 687c-158,235 -248,423 -248,516 0,159 139,297 299,297 132,0 256,-97 290,-226 13,-51 11,-100 -6,-156 -31,-98 -119,-261 -233,-431 -26,-39 -49,-72 -51,-72 -2,0 -25,32 -51,72zm91 167c86,141 138,247 154,311 16,66 -5,129 -59,179 -41,38 -79,53 -134,53 -55,0 -94,-15 -134,-53 -73,-67 -82,-139 -32,-256 31,-73 156,-292 167,-292 3,0 20,26 40,57z"/>
    </clipPath>
    <clipPath id="id1">
     <path d="M1130 385l0 304 -26 15c-52,31 -82,98 -69,156 9,39 36,78 69,97l26 15 0 64c0,60 -1,65 -14,79 -13,14 -18,14 -79,14l-64 0 -15 -26c-19,-32 -57,-59 -97,-69 -58,-13 -122,14 -154,66l-18 29 -304 0 -304 0 0 451 0 451 304 0 304 0 18 29c30,48 90,76 143,68 40,-6 85,-35 105,-68l18 -29 264 0 264 0 101 -101c56,-56 101,-98 101,-95 0,3 -7,44 -15,91 -8,47 -15,90 -15,95 0,10 16,10 257,10l257 0 15 26c19,32 57,59 97,69 58,13 122,-14 154,-66l18 -29 304 0 304 0 0 -451 0 -451 -304 0 -304 0 -18 -29c-30,-48 -90,-76 -143,-68 -40,6 -85,35 -105,68l-18 29 -64 0c-60,0 -65,-1 -78,-14 -14,-13 -14,-18 -14,-78l0 -64 29 -18c48,-30 76,-90 68,-143 -6,-40 -35,-85 -68,-105l-29 -18 0 -304 0 -304 -451 0 -451 0 0 304zm802 45l0 249 -351 0 -351 0 0 -249 0 -249 351 0 351 0 0 249zm60 355c17,5 25,11 32,26 9,19 9,22 0,40 -7,15 -15,22 -32,26 -31,9 -793,9 -823,0 -17,-5 -25,-11 -32,-26 -9,-19 -9,-22 0,-40 7,-14 15,-22 29,-26 28,-8 798,-8 826,0zm-60 265c0,59 2,69 15,96 17,34 40,56 76,72 18,8 38,11 89,11l66 0 0 351 0 351 -193 0c-132,0 -193,-2 -193,-6 0,-7 57,-353 62,-374 2,-10 -60,48 -195,183l-198 198 -239 0 -239 0 0 -351 0 -351 66 0c59,0 69,-2 96,-15 34,-17 56,-40 72,-76 8,-18 11,-38 11,-89l0 -66 351 0 351 0 0 66zm-1078 89c11,6 19,16 23,31 8,30 8,793 0,823 -5,17 -11,25 -26,32 -19,9 -22,9 -40,0 -16,-7 -22,-15 -27,-33 -4,-16 -6,-151 -5,-423 2,-428 1,-417 31,-431 17,-8 25,-8 44,2zm1499 0c11,6 19,16 23,31 8,30 8,793 0,823 -5,17 -11,25 -26,32 -19,9 -22,9 -40,0 -15,-7 -22,-15 -26,-32 -8,-30 -9,-793 0,-823 4,-14 12,-25 22,-31 20,-11 27,-11 48,0zm-1675 442l0 351 -249 0 -249 0 0 -351 0 -351 249 0 249 0 0 351zm2302 0l0 351 -249 0 -249 0 0 -351 0 -351 249 0 249 0 0 351zm-1451 687c-158,235 -248,423 -248,516 0,159 139,297 299,297 132,0 256,-97 290,-226 13,-51 11,-100 -6,-156 -31,-98 -119,-261 -233,-431 -26,-39 -49,-72 -51,-72 -2,0 -25,32 -51,72zm91 167c86,141 138,247 154,311 16,66 -5,129 -59,179 -41,38 -79,53 -134,53 -55,0 -94,-15 -134,-53 -73,-67 -82,-139 -32,-256 31,-73 156,-292 167,-292 3,0 20,26 40,57z"/>
    </clipPath>
 </defs>
 <g id="Слой_x0020_1">
  <metadata id="CorelCorpID_0Corel-Layer"/>
  <g id="_757489648">
   <path class="fil0" d="M1130 385l0 304 -26 15c-52,31 -82,98 -69,156 9,39 36,78 69,97l26 15 0 64c0,60 -1,65 -14,79 -13,14 -18,14 -79,14l-64 0 -15 -26c-19,-32 -57,-59 -97,-69 -58,-13 -122,14 -154,66l-18 29 -304 0 -304 0 0 451 0 451 304 0 304 0 18 29c30,48 90,76 143,68 40,-6 85,-35 105,-68l18 -29 264 0 264 0 101 -101c56,-56 101,-98 101,-95 0,3 -7,44 -15,91 -8,47 -15,90 -15,95 0,10 16,10 257,10l257 0 15 26c19,32 57,59 97,69 58,13 122,-14 154,-66l18 -29 304 0 304 0 0 -451 0 -451 -304 0 -304 0 -18 -29c-30,-48 -90,-76 -143,-68 -40,6 -85,35 -105,68l-18 29 -64 0c-60,0 -65,-1 -78,-14 -14,-13 -14,-18 -14,-78l0 -64 29 -18c48,-30 76,-90 68,-143 -6,-40 -35,-85 -68,-105l-29 -18 0 -304 0 -304 -451 0 -451 0 0 304zm802 45l0 249 -351 0 -351 0 0 -249 0 -249 351 0 351 0 0 249zm60 355c17,5 25,11 32,26 9,19 9,22 0,40 -7,15 -15,22 -32,26 -31,9 -793,9 -823,0 -17,-5 -25,-11 -32,-26 -9,-19 -9,-22 0,-40 7,-14 15,-22 29,-26 28,-8 798,-8 826,0zm-60 265c0,59 2,69 15,96 17,34 40,56 76,72 18,8 38,11 89,11l66 0 0 351 0 351 -193 0c-132,0 -193,-2 -193,-6 0,-7 57,-353 62,-374 2,-10 -60,48 -195,183l-198 198 -239 0 -239 0 0 -351 0 -351 66 0c59,0 69,-2 96,-15 34,-17 56,-40 72,-76 8,-18 11,-38 11,-89l0 -66 351 0 351 0 0 66zm-1078 89c11,6 19,16 23,31 8,30 8,793 0,823 -5,17 -11,25 -26,32 -19,9 -22,9 -40,0 -16,-7 -22,-15 -27,-33 -4,-16 -6,-151 -5,-423 2,-428 1,-417 31,-431 17,-8 25,-8 44,2zm1499 0c11,6 19,16 23,31 8,30 8,793 0,823 -5,17 -11,25 -26,32 -19,9 -22,9 -40,0 -15,-7 -22,-15 -26,-32 -8,-30 -9,-793 0,-823 4,-14 12,-25 22,-31 20,-11 27,-11 48,0zm-1675 442l0 351 -249 0 -249 0 0 -351 0 -351 249 0 249 0 0 351zm2302 0l0 351 -249 0 -249 0 0 -351 0 -351 249 0 249 0 0 351zm-1451 687c-158,235 -248,423 -248,516 0,159 139,297 299,297 132,0 256,-97 290,-226 13,-51 11,-100 -6,-156 -31,-98 -119,-261 -233,-431 -26,-39 -49,-72 -51,-72 -2,0 -25,32 -51,72zm91 167c86,141 138,247 154,311 16,66 -5,129 -59,179 -41,38 -79,53 -134,53 -55,0 -94,-15 -134,-53 -73,-67 -82,-139 -32,-256 31,-73 156,-292 167,-292 3,0 20,26 40,57z"/>
   <g style="clip-path:url(#id0)">
    <polygon class="fil1" points="81,81 3080,81 3080,3080 81,3080 "/>
   </g>
   <g style="clip-path:url(#id1)">
    <g>
     <path id="1" class="fil2 str0" d="M1130 385l0 304 -26 15c-52,31 -82,98 -69,156 9,39 36,78 69,97l26 15 0 64c0,60 -1,65 -14,79 -13,14 -18,14 -79,14l-64 0 -15 -26c-19,-32 -57,-59 -97,-69 -58,-13 -122,14 -154,66l-18 29 -304 0 -304 0 0 451 0 451 304 0 304 0 18 29c30,48 90,76 143,68 40,-6 85,-35 105,-68l18 -29 264 0 264 0 101 -101c56,-56 101,-98 101,-95 0,3 -7,44 -15,91 -8,47 -15,90 -15,95 0,10 16,10 257,10l257 0 15 26c19,32 57,59 97,69 58,13 122,-14 154,-66l18 -29 304 0 304 0 0 -451 0 -451 -304 0 -304 0 -18 -29c-30,-48 -90,-76 -143,-68 -40,6 -85,35 -105,68l-18 29 -64 0c-60,0 -65,-1 -78,-14 -14,-13 -14,-18 -14,-78l0 -64 29 -18c48,-30 76,-90 68,-143 -6,-40 -35,-85 -68,-105l-29 -18 0 -304 0 -304 -451 0 -451 0 0 304zm802 45l0 249 -351 0 -351 0 0 -249 0 -249 351 0 351 0 0 249zm60 355c17,5 25,11 32,26 9,19 9,22 0,40 -7,15 -15,22 -32,26 -31,9 -793,9 -823,0 -17,-5 -25,-11 -32,-26 -9,-19 -9,-22 0,-40 7,-14 15,-22 29,-26 28,-8 798,-8 826,0zm-60 265c0,59 2,69 15,96 17,34 40,56 76,72 18,8 38,11 89,11l66 0 0 351 0 351 -193 0c-132,0 -193,-2 -193,-6 0,-7 57,-353 62,-374 2,-10 -60,48 -195,183l-198 198 -239 0 -239 0 0 -351 0 -351 66 0c59,0 69,-2 96,-15 34,-17 56,-40 72,-76 8,-18 11,-38 11,-89l0 -66 351 0 351 0 0 66zm-1078 89c11,6 19,16 23,31 8,30 8,793 0,823 -5,17 -11,25 -26,32 -19,9 -22,9 -40,0 -16,-7 -22,-15 -27,-33 -4,-16 -6,-151 -5,-423 2,-428 1,-417 31,-431 17,-8 25,-8 44,2zm1499 0c11,6 19,16 23,31 8,30 8,793 0,823 -5,17 -11,25 -26,32 -19,9 -22,9 -40,0 -15,-7 -22,-15 -26,-32 -8,-30 -9,-793 0,-823 4,-14 12,-25 22,-31 20,-11 27,-11 48,0zm-1675 442l0 351 -249 0 -249 0 0 -351 0 -351 249 0 249 0 0 351zm2302 0l0 351 -249 0 -249 0 0 -351 0 -351 249 0 249 0 0 351zm-1451 687c-158,235 -248,423 -248,516 0,159 139,297 299,297 132,0 256,-97 290,-226 13,-51 11,-100 -6,-156 -31,-98 -119,-261 -233,-431 -26,-39 -49,-72 -51,-72 -2,0 -25,32 -51,72zm91 167c86,141 138,247 154,311 16,66 -5,129 -59,179 -41,38 -79,53 -134,53 -55,0 -94,-15 -134,-53 -73,-67 -82,-139 -32,-256 31,-73 156,-292 167,-292 3,0 20,26 40,57z"/>
    </g>
   </g>
   <path class="fil3" d="M1130 385l0 304 -26 15c-52,31 -82,98 -69,156 9,39 36,78 69,97l26 15 0 64c0,60 -1,65 -14,79 -13,14 -18,14 -79,14l-64 0 -15 -26c-19,-32 -57,-59 -97,-69 -58,-13 -122,14 -154,66l-18 29 -304 0 -304 0 0 451 0 451 304 0 304 0 18 29c30,48 90,76 143,68 40,-6 85,-35 105,-68l18 -29 264 0 264 0 101 -101c56,-56 101,-98 101,-95 0,3 -7,44 -15,91 -8,47 -15,90 -15,95 0,10 16,10 257,10l257 0 15 26c19,32 57,59 97,69 58,13 122,-14 154,-66l18 -29 304 0 304 0 0 -451 0 -451 -304 0 -304 0 -18 -29c-30,-48 -90,-76 -143,-68 -40,6 -85,35 -105,68l-18 29 -64 0c-60,0 -65,-1 -78,-14 -14,-13 -14,-18 -14,-78l0 -64 29 -18c48,-30 76,-90 68,-143 -6,-40 -35,-85 -68,-105l-29 -18 0 -304 0 -304 -451 0 -451 0 0 304zm802 45l0 249 -351 0 -351 0 0 -249 0 -249 351 0 351 0 0 249zm60 355c17,5 25,11 32,26 9,19 9,22 0,40 -7,15 -15,22 -32,26 -31,9 -793,9 -823,0 -17,-5 -25,-11 -32,-26 -9,-19 -9,-22 0,-40 7,-14 15,-22 29,-26 28,-8 798,-8 826,0zm-60 265c0,59 2,69 15,96 17,34 40,56 76,72 18,8 38,11 89,11l66 0 0 351 0 351 -193 0c-132,0 -193,-2 -193,-6 0,-7 57,-353 62,-374 2,-10 -60,48 -195,183l-198 198 -239 0 -239 0 0 -351 0 -351 66 0c59,0 69,-2 96,-15 34,-17 56,-40 72,-76 8,-18 11,-38 11,-89l0 -66 351 0 351 0 0 66zm-1078 89c11,6 19,16 23,31 8,30 8,793 0,823 -5,17 -11,25 -26,32 -19,9 -22,9 -40,0 -16,-7 -22,-15 -27,-33 -4,-16 -6,-151 -5,-423 2,-428 1,-417 31,-431 17,-8 25,-8 44,2zm1499 0c11,6 19,16 23,31 8,30 8,793 0,823 -5,17 -11,25 -26,32 -19,9 -22,9 -40,0 -15,-7 -22,-15 -26,-32 -8,-30 -9,-793 0,-823 4,-14 12,-25 22,-31 20,-11 27,-11 48,0zm-1675 442l0 351 -249 0 -249 0 0 -351 0 -351 249 0 249 0 0 351zm2302 0l0 351 -249 0 -249 0 0 -351 0 -351 249 0 249 0 0 351zm-1451 687c-158,235 -248,423 -248,516 0,159 139,297 299,297 132,0 256,-97 290,-226 13,-51 11,-100 -6,-156 -31,-98 -119,-261 -233,-431 -26,-39 -49,-72 -51,-72 -2,0 -25,32 -51,72zm91 167c86,141 138,247 154,311 16,66 -5,129 -59,179 -41,38 -79,53 -134,53 -55,0 -94,-15 -134,-53 -73,-67 -82,-139 -32,-256 31,-73 156,-292 167,-292 3,0 20,26 40,57z"/>
  </g>
  <rect class="fil3" width="3162" height="3162"/>
 </g>
</svg>
