<svg width="48" height="48" viewBox="0 0 48 48" fill="none" xmlns="http://www.w3.org/2000/svg">
<path fill-rule="evenodd" clip-rule="evenodd" d="M11.2965 40.716C14.9505 43.467 19.3395 44.937 24.0015 45C35.5725 45 45.0015 35.571 45.0015 24C45.0015 12.429 35.5725 3 24.0015 3C18.4155 3 13.1655 5.184 9.19653 9.153C5.24853 13.101 3.06453 18.372 3.00153 23.979C2.93853 29.145 4.82853 34.101 8.29353 37.965C8.62953 38.343 9.21753 38.364 9.57453 38.028C9.95253 37.692 9.97353 37.104 9.63753 36.747C6.48753 33.24 4.76553 28.725 4.82853 24.021C4.89153 18.897 6.88653 14.067 10.4985 10.455C14.1105 6.822 18.8985 4.827 24.0015 4.827C34.5645 4.827 43.1745 13.437 43.1745 24C43.1745 34.563 34.5645 43.173 24.0015 43.173C19.7385 43.131 15.7275 41.766 12.3675 39.246C11.9685 38.952 11.4015 39.015 11.0865 39.435C10.7925 39.834 10.8555 40.401 11.2755 40.716H11.2965Z" fill="#0093DD"/>
<path fill-rule="evenodd" clip-rule="evenodd" d="M26.1019 10.0556C26.1019 11.2106 25.1569 12.1556 24.0019 12.1556C22.8469 12.1556 21.9019 11.2106 21.9019 10.0556C21.9019 8.90063 22.8469 7.95563 24.0019 7.95563C25.1569 7.95563 26.1019 8.90063 26.1019 10.0556Z" fill="#666666"/>
<path fill-rule="evenodd" clip-rule="evenodd" d="M24.002 37.3976C23.141 37.3976 22.427 36.6836 22.427 35.8226V19.5266H20.327C19.466 19.5266 18.752 18.8126 18.752 17.9516C18.752 17.0906 19.466 16.3766 20.327 16.3766H24.002C24.863 16.3766 25.577 17.0906 25.577 17.9516V35.8436C25.577 36.7046 24.863 37.4186 24.002 37.4186V37.3976Z" fill="#666666"/>
<path fill-rule="evenodd" clip-rule="evenodd" d="M28.7479 37.3976H19.2769C18.4159 37.3976 17.7019 36.6836 17.7019 35.8226C17.7019 34.9616 18.4159 34.2476 19.2769 34.2476H28.7479C29.6089 34.2476 30.3229 34.9616 30.3229 35.8226C30.3229 36.6836 29.6089 37.3976 28.7479 37.3976Z" fill="#666666"/>
</svg>
