<?xml version="1.0" encoding="UTF-8"?>
<!DOCTYPE svg PUBLIC "-//W3C//DTD SVG 1.1//EN" "http://www.w3.org/Graphics/SVG/1.1/DTD/svg11.dtd">
<!-- Creator: CorelDRAW X6 -->
<svg xmlns="http://www.w3.org/2000/svg" xml:space="preserve" width="31.617mm" height="31.617mm" version="1.1" style="shape-rendering:geometricPrecision; text-rendering:geometricPrecision; image-rendering:optimizeQuality; fill-rule:evenodd; clip-rule:evenodd"
viewBox="0 0 3162 3162"
 xmlns:xlink="http://www.w3.org/1999/xlink">
 <defs>
  <style type="text/css">
   <![CDATA[
    .fil1 {fill:none}
    .fil0 {fill:#ffffff}
   ]]>
  </style>
 </defs>
 <g id="Слой_x0020_1">
  <metadata id="CorelCorpID_0Corel-Layer"/>
  <path class="fil0" d="M1727 90c-13,5 -31,14 -39,21 -43,34 -568,572 -574,587 -10,26 -8,81 3,105 13,27 126,138 149,147 23,9 77,9 100,0 10,-4 43,-32 74,-62l56 -55 49 49 49 49 -32 32c-26,27 -32,36 -32,56 0,20 5,30 31,56l31 32 -77 78c-73,74 -77,79 -77,105 0,24 4,32 29,59l29 31 -623 549c-342,302 -644,569 -670,594 -26,25 -56,60 -67,79 -58,101 -50,232 20,326 105,141 308,163 437,47 18,-16 289,-320 603,-676l571 -648 31 29c27,25 35,29 59,29 26,0 31,-3 105,-77l78 -77 33 32c28,27 36,32 56,31 19,-1 30,-7 56,-32l32 -32 49 48 49 48 -58 60c-67,70 -78,96 -63,155 7,28 18,42 73,97 40,40 73,67 87,72 27,9 71,9 96,-1 25,-9 582,-564 598,-597 14,-27 17,-79 6,-107 -4,-10 -35,-47 -70,-82 -54,-55 -68,-66 -97,-74 -28,-8 -39,-8 -66,-2 -27,7 -42,17 -91,66l-59 58 -49 -49 -49 -49 32 -32c26,-27 32,-36 32,-57 0,-24 -11,-35 -287,-312 -158,-158 -294,-289 -302,-291 -21,-5 -48,8 -77,37l-25 26 -47 -47 -48 -47 52 -53c57,-59 72,-85 72,-131 0,-45 -13,-66 -84,-135 -77,-76 -108,-88 -166,-68zm91 156c23,22 41,44 41,47 0,4 -122,129 -271,278l-271 271 -47 -47 -47 -47 271 -271c149,-149 274,-271 278,-271 4,0 25,18 47,41zm-2 365l45 46 -26 28c-69,74 -151,155 -157,155 -4,0 -27,-21 -52,-46l-45 -46 91 -92c50,-50 93,-92 95,-92 2,0 24,21 49,46zm453 270c123,123 224,227 224,231 0,4 -81,87 -179,186l-179 179 -230 -225c-126,-124 -229,-227 -228,-230 4,-11 353,-365 360,-365 4,0 108,101 232,224zm-451 451c73,73 133,135 133,139 0,4 -21,27 -46,52l-46 45 -139 -139 -139 -139 45 -46c25,-25 49,-46 52,-46 4,0 66,60 139,132zm677 144l-93 93 -46 -45c-25,-25 -46,-49 -46,-52 0,-4 40,-47 90,-97l90 -90 49 49 49 49 -93 93zm409 -144c23,22 41,44 41,47 0,4 -122,129 -271,278l-271 271 -47 -47 -47 -47 271 -271c149,-149 274,-271 278,-271 4,0 25,18 47,41zm-1267 185c44,44 48,50 39,60 -70,87 -1153,1306 -1174,1321 -104,75 -251,15 -278,-113 -10,-48 1,-98 29,-135 18,-24 1323,-1182 1332,-1182 2,0 25,22 52,49zm325 975c-39,14 -63,37 -83,79 -10,20 -13,41 -13,92l0 66 -32 20c-61,38 -90,96 -84,169 6,70 48,126 113,151 30,12 57,12 539,12 482,0 509,-1 539,-12 66,-26 108,-81 113,-152 6,-72 -26,-134 -87,-170l-29 -17 0 -66c0,-74 -10,-105 -43,-137 -43,-42 -16,-40 -483,-42 -347,-1 -430,0 -450,8zm849 119c8,8 10,24 10,62l0 52 -419 0 -419 0 0 -52c0,-38 3,-55 10,-62 9,-9 55,-10 408,-10 353,0 399,1 408,10zm109 251c25,25 26,59 3,83l-16 16 -504 0 -504 0 -16 -16c-24,-24 -22,-62 4,-85l20 -17 497 0 497 0 19 19z"/>
  <rect class="fil1" width="3162" height="3162"/>
 </g>
</svg>
