<svg width="24" height="24" viewBox="0 0 24 24" fill="none" xmlns="http://www.w3.org/2000/svg">
<path fill-rule="evenodd" clip-rule="evenodd" d="M6.39686 3.36382C7.87957 1.90155 9.93084 1 12.1939 1C14.457 1 16.5083 1.90155 17.991 3.36382C19.4737 4.82609 20.3878 6.84908 20.3878 9.08096C20.3878 10.5542 19.5183 12.5772 18.3477 14.6222C16.0958 18.5692 12.7513 22.5822 12.5395 22.8351C12.4949 22.8901 12.4503 22.923 12.3834 22.956C12.3277 22.978 12.2608 23 12.1939 23C12.127 23 12.0601 22.989 12.0044 22.956C11.9487 22.934 11.8929 22.8901 11.8483 22.8351C11.6365 22.5822 8.29205 18.5692 6.04012 14.6222C4.86956 12.5772 4 10.5652 4 9.08096C4 6.84908 4.91415 4.82609 6.39686 3.36382ZM12.4615 4.0015L17.2552 7.64068C17.3109 7.68466 17.3555 7.73963 17.3778 7.7946C17.4113 7.84958 17.4224 7.91554 17.4224 7.9925C17.4224 8.11344 17.3778 8.22339 17.2886 8.30035C17.2106 8.37731 17.0991 8.43228 16.9765 8.43228H15.9397V12.3683C15.9397 12.4893 15.8951 12.5992 15.8059 12.6762C15.7279 12.7531 15.6164 12.8081 15.4938 12.8081H8.84946C8.72683 12.8081 8.61535 12.7641 8.53731 12.6762C8.45928 12.5992 8.40353 12.4893 8.40353 12.3683V8.43228H7.36675C7.29986 8.43228 7.23298 8.42129 7.17723 8.38831C7.12149 8.35532 7.06575 8.31134 7.02116 8.26737C6.94312 8.16842 6.92083 8.05847 6.93197 7.94853C6.94312 7.83858 6.99886 7.72864 7.0992 7.66267L11.8929 4.02349C11.971 3.95752 12.0713 3.93553 12.1605 3.93553C12.2608 3.93553 12.35 3.96852 12.428 4.02349L12.4615 4.0015ZM11.525 11.9175H12.8517V9.87256H11.525V11.9175ZM15.2039 7.67366C15.282 7.5967 15.3934 7.54173 15.5161 7.54173H15.6945L12.1939 4.89205L8.69339 7.54173H8.87176C8.99439 7.54173 9.10587 7.58571 9.18391 7.67366C9.26195 7.75062 9.31769 7.86057 9.31769 7.98151V11.9175H10.6443V9.44378C10.6443 9.32284 10.6889 9.21289 10.7781 9.13593C10.8561 9.05897 10.9676 9.004 11.0902 9.004H13.3087C13.4314 9.004 13.5429 9.04798 13.6209 9.13593C13.6989 9.21289 13.7547 9.32284 13.7547 9.44378V11.9175H15.0813V7.98151C15.0813 7.86057 15.1259 7.75062 15.2151 7.67366H15.2039ZM6.7759 14.1384C8.61535 17.3488 11.2575 20.7021 12.1939 21.8566C12.9297 20.955 14.7134 18.6792 16.341 16.1944C18.0021 13.6437 19.496 10.8621 19.496 9.08096C19.496 7.09095 18.671 5.28786 17.3555 3.9905C16.0289 2.68216 14.2117 1.87956 12.1939 1.87956C10.1761 1.87956 8.34779 2.69315 7.03231 3.9905C5.70567 5.29885 4.89186 7.09095 4.89186 9.08096C4.89186 10.3893 5.69452 12.2364 6.78705 14.1384H6.7759Z" fill="white"/>
</svg>
