<svg width="28" height="28" viewBox="0 0 28 28" fill="none" xmlns="http://www.w3.org/2000/svg">
<path d="M23.8906 6H4.10938C2.94392 6 2 6.94978 2 8.10938V20.7656C2 21.9321 2.95086 22.875 4.10938 22.875H23.8906C25.0463 22.875 26 21.9361 26 20.7656V8.10938C26 6.95184 25.0598 6 23.8906 6ZM23.5952 7.40625C23.1642 7.83492 15.7476 15.2125 15.4916 15.4672C15.0931 15.8656 14.5634 16.085 14 16.085C13.4366 16.085 12.9069 15.8656 12.5071 15.4659C12.3349 15.2946 5.00014 7.99847 4.40478 7.40625H23.5952ZM3.40625 20.4794V8.39648L9.48303 14.4412L3.40625 20.4794ZM4.40567 21.4688L10.4801 15.433L11.5141 16.4616C12.1781 17.1256 13.061 17.4913 14 17.4913C14.939 17.4913 15.8219 17.1256 16.4846 16.4629L17.5199 15.433L23.5943 21.4688H4.40567ZM24.5938 20.4794L18.517 14.4412L24.5938 8.39648V20.4794Z" fill="#0093DD"/>
</svg>
