<?xml version="1.0" encoding="UTF-8"?>
<!DOCTYPE svg PUBLIC "-//W3C//DTD SVG 1.1//EN" "http://www.w3.org/Graphics/SVG/1.1/DTD/svg11.dtd">
<!-- Creator: CorelDRAW X6 -->
<svg xmlns="http://www.w3.org/2000/svg" xml:space="preserve" width="31.617mm" height="31.617mm" version="1.1" style="shape-rendering:geometricPrecision; text-rendering:geometricPrecision; image-rendering:optimizeQuality; fill-rule:evenodd; clip-rule:evenodd"
viewBox="0 0 3162 3162"
 xmlns:xlink="http://www.w3.org/1999/xlink">
 <defs>
  <style type="text/css">
   <![CDATA[
    .str0 {stroke:#ffffff;stroke-width:10.58}
    .fil3 {fill:none}
    .fil2 {fill:none}
    .fil0 {fill:#ffffff}
    .fil1 {fill:black;fill-opacity:0.000000}
   ]]>
  </style>
    <clipPath id="id0">
     <path d="M1163 92c-14,6 -233,201 -541,481 -407,370 -520,476 -529,495 -14,31 -14,64 0,94 16,35 110,142 136,156 24,12 66,15 90,6l15 -6 0 410c0,395 0,411 12,441 14,38 51,77 91,96l29 14 530 0c458,0 529,1 526,8 -2,5 -69,84 -149,176 -80,92 -154,183 -164,201 -62,111 -44,246 46,334 94,94 238,109 349,37 29,-19 90,-86 348,-384 232,-268 315,-360 322,-358 5,2 36,8 68,13 271,42 546,-102 671,-350 47,-93 67,-178 67,-289 0,-125 -14,-178 -57,-210 -22,-16 -76,-17 -99,-2 -9,6 -80,84 -158,174l-142 164 -148 0 -148 0 -3 -13c-2,-7 -13,-73 -25,-146l-22 -133 70 -81c218,-253 225,-261 229,-281 9,-47 -11,-87 -52,-109 -23,-11 -30,-12 -109,-8 -47,2 -93,4 -103,5 -16,1 -31,-11 -125,-95l-107 -96 0 -233c0,-150 -2,-239 -6,-249 -9,-23 -34,-48 -61,-61 -21,-10 -39,-11 -155,-11 -149,0 -163,3 -198,43 -18,21 -24,37 -27,82l-2 22 -179 -162c-100,-91 -189,-167 -202,-173 -30,-14 -58,-14 -88,0zm533 528c266,242 484,442 484,444 0,3 -14,11 -30,19 -17,8 -47,25 -68,39 -21,14 -40,24 -42,23 -2,-1 -184,-165 -404,-365 -225,-204 -407,-366 -416,-368 -11,-3 -21,-2 -31,3 -8,4 -215,189 -459,411 -244,222 -448,402 -452,401 -9,-2 -96,-104 -96,-113 0,-6 142,-136 879,-804 79,-72 146,-130 148,-130 2,0 222,198 488,440zm282 -233c2,4 2,85 1,181l-2 173 -122 -111 -122 -111 0 -66c0,-36 2,-68 4,-70 2,-2 56,-4 120,-4 88,0 117,2 119,7zm-409 468c196,178 365,332 376,342l20 19 -26 31c-147,174 -191,416 -116,628l17 48 -33 39c-18,21 -68,79 -109,128l-76 89 -42 0 -42 0 -2 -289 -2 -289 -18 -35c-19,-39 -53,-69 -90,-79 -13,-4 -101,-6 -218,-6 -117,0 -205,2 -218,6 -34,10 -70,40 -88,76l-16 32 0 292 0 292 -202 0 -202 0 -22 -20 -22 -20 -2 -454 -2 -454 385 -349c212,-192 387,-349 390,-349 3,0 165,145 361,323zm897 273c-5,6 -68,79 -141,163 -72,84 -136,160 -142,168 -10,15 -10,21 20,199 17,101 33,191 36,200 4,9 12,20 19,23 15,8 379,16 402,9 9,-3 74,-73 161,-175 170,-197 157,-193 157,-52 0,71 -2,93 -13,135 -28,103 -78,188 -154,261 -53,51 -85,73 -148,102 -110,51 -239,64 -359,36 -33,-8 -66,-12 -73,-10 -9,2 -129,137 -337,377 -218,252 -332,379 -349,390 -123,77 -284,-22 -272,-168 2,-24 8,-46 19,-65 9,-16 159,-194 335,-397 357,-412 332,-376 304,-443 -54,-132 -57,-282 -8,-410 81,-209 280,-349 497,-351 52,0 55,0 46,10zm-1051 467l14 14 0 285 0 284 -223 0 -223 0 0 -284 0 -285 14 -14 14 -14 194 0 194 0 14 14zm124 1035c-6,3 -34,34 -63,67 -45,52 -53,64 -53,82 0,37 38,61 71,43 6,-3 35,-34 64,-68 60,-70 65,-85 36,-114 -18,-18 -37,-21 -55,-11z"/>
    </clipPath>
    <clipPath id="id1">
     <path d="M1163 92c-14,6 -233,201 -541,481 -407,370 -520,476 -529,495 -14,31 -14,64 0,94 16,35 110,142 136,156 24,12 66,15 90,6l15 -6 0 410c0,395 0,411 12,441 14,38 51,77 91,96l29 14 530 0c458,0 529,1 526,8 -2,5 -69,84 -149,176 -80,92 -154,183 -164,201 -62,111 -44,246 46,334 94,94 238,109 349,37 29,-19 90,-86 348,-384 232,-268 315,-360 322,-358 5,2 36,8 68,13 271,42 546,-102 671,-350 47,-93 67,-178 67,-289 0,-125 -14,-178 -57,-210 -22,-16 -76,-17 -99,-2 -9,6 -80,84 -158,174l-142 164 -148 0 -148 0 -3 -13c-2,-7 -13,-73 -25,-146l-22 -133 70 -81c218,-253 225,-261 229,-281 9,-47 -11,-87 -52,-109 -23,-11 -30,-12 -109,-8 -47,2 -93,4 -103,5 -16,1 -31,-11 -125,-95l-107 -96 0 -233c0,-150 -2,-239 -6,-249 -9,-23 -34,-48 -61,-61 -21,-10 -39,-11 -155,-11 -149,0 -163,3 -198,43 -18,21 -24,37 -27,82l-2 22 -179 -162c-100,-91 -189,-167 -202,-173 -30,-14 -58,-14 -88,0zm533 528c266,242 484,442 484,444 0,3 -14,11 -30,19 -17,8 -47,25 -68,39 -21,14 -40,24 -42,23 -2,-1 -184,-165 -404,-365 -225,-204 -407,-366 -416,-368 -11,-3 -21,-2 -31,3 -8,4 -215,189 -459,411 -244,222 -448,402 -452,401 -9,-2 -96,-104 -96,-113 0,-6 142,-136 879,-804 79,-72 146,-130 148,-130 2,0 222,198 488,440zm282 -233c2,4 2,85 1,181l-2 173 -122 -111 -122 -111 0 -66c0,-36 2,-68 4,-70 2,-2 56,-4 120,-4 88,0 117,2 119,7zm-409 468c196,178 365,332 376,342l20 19 -26 31c-147,174 -191,416 -116,628l17 48 -33 39c-18,21 -68,79 -109,128l-76 89 -42 0 -42 0 -2 -289 -2 -289 -18 -35c-19,-39 -53,-69 -90,-79 -13,-4 -101,-6 -218,-6 -117,0 -205,2 -218,6 -34,10 -70,40 -88,76l-16 32 0 292 0 292 -202 0 -202 0 -22 -20 -22 -20 -2 -454 -2 -454 385 -349c212,-192 387,-349 390,-349 3,0 165,145 361,323zm897 273c-5,6 -68,79 -141,163 -72,84 -136,160 -142,168 -10,15 -10,21 20,199 17,101 33,191 36,200 4,9 12,20 19,23 15,8 379,16 402,9 9,-3 74,-73 161,-175 170,-197 157,-193 157,-52 0,71 -2,93 -13,135 -28,103 -78,188 -154,261 -53,51 -85,73 -148,102 -110,51 -239,64 -359,36 -33,-8 -66,-12 -73,-10 -9,2 -129,137 -337,377 -218,252 -332,379 -349,390 -123,77 -284,-22 -272,-168 2,-24 8,-46 19,-65 9,-16 159,-194 335,-397 357,-412 332,-376 304,-443 -54,-132 -57,-282 -8,-410 81,-209 280,-349 497,-351 52,0 55,0 46,10zm-1051 467l14 14 0 285 0 284 -223 0 -223 0 0 -284 0 -285 14 -14 14 -14 194 0 194 0 14 14zm124 1035c-6,3 -34,34 -63,67 -45,52 -53,64 -53,82 0,37 38,61 71,43 6,-3 35,-34 64,-68 60,-70 65,-85 36,-114 -18,-18 -37,-21 -55,-11z"/>
    </clipPath>
 </defs>
 <g id="Слой_x0020_1">
  <metadata id="CorelCorpID_0Corel-Layer"/>
  <g id="_746615312">
   <path class="fil0" d="M1163 92c-14,6 -233,201 -541,481 -407,370 -520,476 -529,495 -14,31 -14,64 0,94 16,35 110,142 136,156 24,12 66,15 90,6l15 -6 0 410c0,395 0,411 12,441 14,38 51,77 91,96l29 14 530 0c458,0 529,1 526,8 -2,5 -69,84 -149,176 -80,92 -154,183 -164,201 -62,111 -44,246 46,334 94,94 238,109 349,37 29,-19 90,-86 348,-384 232,-268 315,-360 322,-358 5,2 36,8 68,13 271,42 546,-102 671,-350 47,-93 67,-178 67,-289 0,-125 -14,-178 -57,-210 -22,-16 -76,-17 -99,-2 -9,6 -80,84 -158,174l-142 164 -148 0 -148 0 -3 -13c-2,-7 -13,-73 -25,-146l-22 -133 70 -81c218,-253 225,-261 229,-281 9,-47 -11,-87 -52,-109 -23,-11 -30,-12 -109,-8 -47,2 -93,4 -103,5 -16,1 -31,-11 -125,-95l-107 -96 0 -233c0,-150 -2,-239 -6,-249 -9,-23 -34,-48 -61,-61 -21,-10 -39,-11 -155,-11 -149,0 -163,3 -198,43 -18,21 -24,37 -27,82l-2 22 -179 -162c-100,-91 -189,-167 -202,-173 -30,-14 -58,-14 -88,0zm533 528c266,242 484,442 484,444 0,3 -14,11 -30,19 -17,8 -47,25 -68,39 -21,14 -40,24 -42,23 -2,-1 -184,-165 -404,-365 -225,-204 -407,-366 -416,-368 -11,-3 -21,-2 -31,3 -8,4 -215,189 -459,411 -244,222 -448,402 -452,401 -9,-2 -96,-104 -96,-113 0,-6 142,-136 879,-804 79,-72 146,-130 148,-130 2,0 222,198 488,440zm282 -233c2,4 2,85 1,181l-2 173 -122 -111 -122 -111 0 -66c0,-36 2,-68 4,-70 2,-2 56,-4 120,-4 88,0 117,2 119,7zm-409 468c196,178 365,332 376,342l20 19 -26 31c-147,174 -191,416 -116,628l17 48 -33 39c-18,21 -68,79 -109,128l-76 89 -42 0 -42 0 -2 -289 -2 -289 -18 -35c-19,-39 -53,-69 -90,-79 -13,-4 -101,-6 -218,-6 -117,0 -205,2 -218,6 -34,10 -70,40 -88,76l-16 32 0 292 0 292 -202 0 -202 0 -22 -20 -22 -20 -2 -454 -2 -454 385 -349c212,-192 387,-349 390,-349 3,0 165,145 361,323zm897 273c-5,6 -68,79 -141,163 -72,84 -136,160 -142,168 -10,15 -10,21 20,199 17,101 33,191 36,200 4,9 12,20 19,23 15,8 379,16 402,9 9,-3 74,-73 161,-175 170,-197 157,-193 157,-52 0,71 -2,93 -13,135 -28,103 -78,188 -154,261 -53,51 -85,73 -148,102 -110,51 -239,64 -359,36 -33,-8 -66,-12 -73,-10 -9,2 -129,137 -337,377 -218,252 -332,379 -349,390 -123,77 -284,-22 -272,-168 2,-24 8,-46 19,-65 9,-16 159,-194 335,-397 357,-412 332,-376 304,-443 -54,-132 -57,-282 -8,-410 81,-209 280,-349 497,-351 52,0 55,0 46,10zm-1051 467l14 14 0 285 0 284 -223 0 -223 0 0 -284 0 -285 14 -14 14 -14 194 0 194 0 14 14zm124 1035c-6,3 -34,34 -63,67 -45,52 -53,64 -53,82 0,37 38,61 71,43 6,-3 35,-34 64,-68 60,-70 65,-85 36,-114 -18,-18 -37,-21 -55,-11z"/>
   <g style="clip-path:url(#id0)">
    <polygon class="fil1" points="82,81 3079,81 3079,3080 82,3080 "/>
   </g>
   <g style="clip-path:url(#id1)">
    <g>
     <path id="1" class="fil2 str0" d="M1163 92c-14,6 -233,201 -541,481 -407,370 -520,476 -529,495 -14,31 -14,64 0,94 16,35 110,142 136,156 24,12 66,15 90,6l15 -6 0 410c0,395 0,411 12,441 14,38 51,77 91,96l29 14 530 0c458,0 529,1 526,8 -2,5 -69,84 -149,176 -80,92 -154,183 -164,201 -62,111 -44,246 46,334 94,94 238,109 349,37 29,-19 90,-86 348,-384 232,-268 315,-360 322,-358 5,2 36,8 68,13 271,42 546,-102 671,-350 47,-93 67,-178 67,-289 0,-125 -14,-178 -57,-210 -22,-16 -76,-17 -99,-2 -9,6 -80,84 -158,174l-142 164 -148 0 -148 0 -3 -13c-2,-7 -13,-73 -25,-146l-22 -133 70 -81c218,-253 225,-261 229,-281 9,-47 -11,-87 -52,-109 -23,-11 -30,-12 -109,-8 -47,2 -93,4 -103,5 -16,1 -31,-11 -125,-95l-107 -96 0 -233c0,-150 -2,-239 -6,-249 -9,-23 -34,-48 -61,-61 -21,-10 -39,-11 -155,-11 -149,0 -163,3 -198,43 -18,21 -24,37 -27,82l-2 22 -179 -162c-100,-91 -189,-167 -202,-173 -30,-14 -58,-14 -88,0zm533 528c266,242 484,442 484,444 0,3 -14,11 -30,19 -17,8 -47,25 -68,39 -21,14 -40,24 -42,23 -2,-1 -184,-165 -404,-365 -225,-204 -407,-366 -416,-368 -11,-3 -21,-2 -31,3 -8,4 -215,189 -459,411 -244,222 -448,402 -452,401 -9,-2 -96,-104 -96,-113 0,-6 142,-136 879,-804 79,-72 146,-130 148,-130 2,0 222,198 488,440zm282 -233c2,4 2,85 1,181l-2 173 -122 -111 -122 -111 0 -66c0,-36 2,-68 4,-70 2,-2 56,-4 120,-4 88,0 117,2 119,7zm-409 468c196,178 365,332 376,342l20 19 -26 31c-147,174 -191,416 -116,628l17 48 -33 39c-18,21 -68,79 -109,128l-76 89 -42 0 -42 0 -2 -289 -2 -289 -18 -35c-19,-39 -53,-69 -90,-79 -13,-4 -101,-6 -218,-6 -117,0 -205,2 -218,6 -34,10 -70,40 -88,76l-16 32 0 292 0 292 -202 0 -202 0 -22 -20 -22 -20 -2 -454 -2 -454 385 -349c212,-192 387,-349 390,-349 3,0 165,145 361,323zm897 273c-5,6 -68,79 -141,163 -72,84 -136,160 -142,168 -10,15 -10,21 20,199 17,101 33,191 36,200 4,9 12,20 19,23 15,8 379,16 402,9 9,-3 74,-73 161,-175 170,-197 157,-193 157,-52 0,71 -2,93 -13,135 -28,103 -78,188 -154,261 -53,51 -85,73 -148,102 -110,51 -239,64 -359,36 -33,-8 -66,-12 -73,-10 -9,2 -129,137 -337,377 -218,252 -332,379 -349,390 -123,77 -284,-22 -272,-168 2,-24 8,-46 19,-65 9,-16 159,-194 335,-397 357,-412 332,-376 304,-443 -54,-132 -57,-282 -8,-410 81,-209 280,-349 497,-351 52,0 55,0 46,10zm-1051 467l14 14 0 285 0 284 -223 0 -223 0 0 -284 0 -285 14 -14 14 -14 194 0 194 0 14 14zm124 1035c-6,3 -34,34 -63,67 -45,52 -53,64 -53,82 0,37 38,61 71,43 6,-3 35,-34 64,-68 60,-70 65,-85 36,-114 -18,-18 -37,-21 -55,-11z"/>
    </g>
   </g>
   <path class="fil3" d="M1163 92c-14,6 -233,201 -541,481 -407,370 -520,476 -529,495 -14,31 -14,64 0,94 16,35 110,142 136,156 24,12 66,15 90,6l15 -6 0 410c0,395 0,411 12,441 14,38 51,77 91,96l29 14 530 0c458,0 529,1 526,8 -2,5 -69,84 -149,176 -80,92 -154,183 -164,201 -62,111 -44,246 46,334 94,94 238,109 349,37 29,-19 90,-86 348,-384 232,-268 315,-360 322,-358 5,2 36,8 68,13 271,42 546,-102 671,-350 47,-93 67,-178 67,-289 0,-125 -14,-178 -57,-210 -22,-16 -76,-17 -99,-2 -9,6 -80,84 -158,174l-142 164 -148 0 -148 0 -3 -13c-2,-7 -13,-73 -25,-146l-22 -133 70 -81c218,-253 225,-261 229,-281 9,-47 -11,-87 -52,-109 -23,-11 -30,-12 -109,-8 -47,2 -93,4 -103,5 -16,1 -31,-11 -125,-95l-107 -96 0 -233c0,-150 -2,-239 -6,-249 -9,-23 -34,-48 -61,-61 -21,-10 -39,-11 -155,-11 -149,0 -163,3 -198,43 -18,21 -24,37 -27,82l-2 22 -179 -162c-100,-91 -189,-167 -202,-173 -30,-14 -58,-14 -88,0zm533 528c266,242 484,442 484,444 0,3 -14,11 -30,19 -17,8 -47,25 -68,39 -21,14 -40,24 -42,23 -2,-1 -184,-165 -404,-365 -225,-204 -407,-366 -416,-368 -11,-3 -21,-2 -31,3 -8,4 -215,189 -459,411 -244,222 -448,402 -452,401 -9,-2 -96,-104 -96,-113 0,-6 142,-136 879,-804 79,-72 146,-130 148,-130 2,0 222,198 488,440zm282 -233c2,4 2,85 1,181l-2 173 -122 -111 -122 -111 0 -66c0,-36 2,-68 4,-70 2,-2 56,-4 120,-4 88,0 117,2 119,7zm-409 468c196,178 365,332 376,342l20 19 -26 31c-147,174 -191,416 -116,628l17 48 -33 39c-18,21 -68,79 -109,128l-76 89 -42 0 -42 0 -2 -289 -2 -289 -18 -35c-19,-39 -53,-69 -90,-79 -13,-4 -101,-6 -218,-6 -117,0 -205,2 -218,6 -34,10 -70,40 -88,76l-16 32 0 292 0 292 -202 0 -202 0 -22 -20 -22 -20 -2 -454 -2 -454 385 -349c212,-192 387,-349 390,-349 3,0 165,145 361,323zm897 273c-5,6 -68,79 -141,163 -72,84 -136,160 -142,168 -10,15 -10,21 20,199 17,101 33,191 36,200 4,9 12,20 19,23 15,8 379,16 402,9 9,-3 74,-73 161,-175 170,-197 157,-193 157,-52 0,71 -2,93 -13,135 -28,103 -78,188 -154,261 -53,51 -85,73 -148,102 -110,51 -239,64 -359,36 -33,-8 -66,-12 -73,-10 -9,2 -129,137 -337,377 -218,252 -332,379 -349,390 -123,77 -284,-22 -272,-168 2,-24 8,-46 19,-65 9,-16 159,-194 335,-397 357,-412 332,-376 304,-443 -54,-132 -57,-282 -8,-410 81,-209 280,-349 497,-351 52,0 55,0 46,10zm-1051 467l14 14 0 285 0 284 -223 0 -223 0 0 -284 0 -285 14 -14 14 -14 194 0 194 0 14 14zm124 1035c-6,3 -34,34 -63,67 -45,52 -53,64 -53,82 0,37 38,61 71,43 6,-3 35,-34 64,-68 60,-70 65,-85 36,-114 -18,-18 -37,-21 -55,-11z"/>
  </g>
  <rect class="fil3" width="3162" height="3162"/>
 </g>
</svg>
