<svg width="48" height="48" viewBox="0 0 48 48" fill="none" xmlns="http://www.w3.org/2000/svg">
<path fill-rule="evenodd" clip-rule="evenodd" d="M44.0247 25.5583V8.53357C44.0247 7.17668 42.9223 6.09541 41.5866 6.09541H31.1767V4.75972C31.1767 3.78445 30.3922 3 29.417 3H18.9859C18.0106 3 17.2261 3.78445 17.2261 4.75972V6.09541H6.81625C5.45936 6.09541 4.37809 7.19788 4.37809 8.53357V25.5583C3.57244 25.8339 3 26.5972 3 27.4876V37.8551C3 38.682 4.25088 38.682 4.25088 37.8551V27.4876C4.25088 27.0424 4.61131 26.682 5.05654 26.682H43.3463C43.7915 26.682 44.1519 27.0424 44.1519 27.4876V42.9435C44.1519 43.3887 43.7915 43.7491 43.3463 43.7491H5.05654C4.61131 43.7491 4.25088 43.3887 4.25088 42.9435V40.3357C4.25088 39.5088 3 39.5088 3 40.3357V42.9435C3 44.0671 3.91166 45 5.05654 45H43.3463C44.47 45 45.4028 44.0883 45.4028 42.9435V27.4876C45.4028 26.5972 44.8304 25.8339 44.0247 25.5583ZM18.4558 4.75972C18.4558 4.4841 18.689 4.25088 18.9647 4.25088H29.3958C29.6714 4.25088 29.9046 4.4841 29.9046 4.75972V6.09541H18.4346V4.75972H18.4558ZM6.79505 7.32509H41.5654C42.2226 7.32509 42.7739 7.85512 42.7739 8.53357V25.4523H32.6184V19.6219C33.636 19.1555 33.4028 18.0742 33.4452 17.9682H33.8693C33.9541 18.477 34.3781 18.8587 34.9293 18.8587C34.9293 18.8587 35.6078 18.8587 36.9011 18.8587C37.4947 18.8587 37.9823 18.371 37.9823 17.7986V14.1519C37.9823 13.5583 37.4947 13.0707 36.9011 13.0707H34.9293C34.3993 13.0707 33.9541 13.4523 33.8693 13.9611H33.4664C33.3816 13.4735 32.9576 13.1131 32.4488 13.1131C29.947 13.1131 30.9435 13.1131 28.3357 13.1131C25.8127 13.1131 22.9717 15.3604 22.8445 18.7951C22.8233 19.3251 23.2474 19.7491 23.7562 19.7491C24.0318 19.7067 24.5618 19.8763 24.9435 19.4311C25.1343 19.1979 25.8551 18.477 27.0424 18.1802C27.1272 18.159 27.2544 18.2014 27.2544 18.3498C27.2544 18.9859 27.6572 19.4947 28.2085 19.6855V25.4523H17.9258V23.6926C17.9258 22.3569 18.4134 21.0848 19.2827 20.1095C20.0671 19.2191 20.5124 18.0742 20.5124 16.8869C20.5124 15.0848 19.5159 13.4311 17.9046 12.583C17.311 12.265 16.5901 12.7102 16.5901 13.3887C16.5477 16.4417 16.6961 16.6113 16.4841 16.6113H14.8728C14.8092 16.6113 14.7668 16.5689 14.7668 16.5053V13.3887C14.7668 12.7102 14.0459 12.265 13.4523 12.583C11.841 13.4311 10.8445 15.0636 10.8445 16.8869C10.8445 18.0742 11.2898 19.2191 12.0742 20.1095C12.9435 21.0848 13.4311 22.3569 13.4311 23.6926V25.4311H5.67138V8.51237C5.67138 7.85512 6.20141 7.30389 6.87986 7.30389L6.79505 7.32509ZM32.1943 17.7562V18.3498C32.1943 18.4346 32.1095 18.5194 32.0247 18.5194C28.6325 18.4982 28.4629 18.6254 28.4629 18.3498C28.4629 17.4382 27.636 16.7809 26.7456 16.9717C25.3887 17.2686 24.4982 18.053 24.0954 18.4982C24.3922 15.8057 26.682 14.3852 28.3145 14.3852H32.258C32.3428 14.8516 32.7456 15.2332 33.2756 15.2332C33.2968 15.2332 34.0389 15.2332 34.0389 15.2332C34.5689 15.2332 35.0141 14.8516 35.0989 14.3428H36.7527V17.629C36.265 17.629 35.5866 17.629 35.0989 17.629C35.0141 17.1201 34.5901 16.7385 34.0601 16.7385C34.0389 16.7385 33.2544 16.7385 33.2544 16.7385C32.682 16.7385 32.2155 17.2049 32.2155 17.7774L32.1943 17.7562ZM29.417 19.7491H31.3675V25.4523H29.417V19.7491ZM14.8304 17.8622H16.4417C17.1837 17.8622 17.7986 17.2473 17.7986 16.5053V14.0035C18.689 14.682 19.2403 15.742 19.2403 16.8869C19.2403 17.7774 18.9223 18.6254 18.3286 19.2827C17.2474 20.4912 16.6537 22.0601 16.6537 23.6926V25.4523H14.6184V23.6926C14.6184 22.0601 14.0247 20.4912 12.9435 19.2827C12.3498 18.6254 12.0318 17.7774 12.0318 16.8869C12.0318 15.742 12.583 14.682 13.4735 14.0035V16.5053C13.4735 17.2473 14.0883 17.8622 14.8304 17.8622Z" fill="#0093DD"/>
<path fill-rule="evenodd" clip-rule="evenodd" d="M29.2047 33.4875C30.4344 33.4875 31.4309 32.491 31.4309 31.2614C31.4309 30.0317 30.4344 29.0352 29.2047 29.0352H19.1764C17.9468 29.0352 16.9503 30.0317 16.9503 31.2614C16.9503 32.491 17.9468 33.4875 19.1764 33.4875H29.2047ZM18.18 31.2614C18.18 30.7101 18.6252 30.2861 19.1552 30.2861H29.1835C29.7347 30.2861 30.1588 30.7313 30.1588 31.2614C30.1588 31.8126 29.7135 32.2366 29.1835 32.2366H19.1552C18.604 32.2366 18.18 31.7914 18.18 31.2614Z" fill="#666666"/>
<path fill-rule="evenodd" clip-rule="evenodd" d="M8.46989 23.5867V10.2086H39.8904V23.5867C39.8904 24.4135 41.1413 24.4135 41.1413 23.5867V10.1662C41.1413 9.50892 40.6112 8.97888 39.954 8.97888H8.42748C7.77024 8.97888 7.2402 9.50892 7.2402 10.1662V23.5867C7.2402 24.4135 8.49109 24.4135 8.49109 23.5867H8.46989Z" fill="#666666"/>
</svg>
