<svg width="48" height="48" viewBox="0 0 48 48" fill="none" xmlns="http://www.w3.org/2000/svg">
<path fill-rule="evenodd" clip-rule="evenodd" d="M5.28248 40.1305V36.2609H23.2371V40.9265C23.2371 41.7446 22.4411 42.6291 21.623 42.6291H6.87452C6.41017 42.6291 5.83527 42.1647 5.65837 41.8331C5.34881 41.3245 5.28248 40.9044 5.28248 40.1305ZM10.4345 21.0481C10.4345 20.8712 10.5008 20.8049 10.6777 20.8049H14.2156V31.0426H10.4345V21.0481ZM27.1951 24.7629H42.6512V32.325H27.1951V31.1973H30.4898C31.5069 31.1973 32.2366 31.0205 32.7673 30.4898C34.0497 29.2515 34.0055 27.6816 32.6788 26.5097C31.7059 25.6252 28.8314 25.8905 27.173 25.8905V24.7629H27.1951ZM27.1951 22.1758H42.6512V23.3035H27.1951V22.1758ZM25.8242 22.021C25.8242 22.8612 25.7137 26.4433 25.979 26.9519C26.1338 27.2615 26.3328 27.2615 26.7971 27.2615L31.131 27.2836C32.7673 27.5047 32.6788 29.8485 30.8214 29.8485H15.675V22.1979C17.9082 22.1979 17.3776 22.3748 18.9254 21.3355L22.1095 19.2128C22.419 19.0138 23.4362 18.2399 23.812 18.2399H30.4898C30.9762 18.2399 32.2145 19.6772 32.6125 20.0752C32.8336 20.2963 33.1432 20.4953 33.2316 20.827H26.775C26.0232 20.827 25.8021 21.0039 25.8021 22.0431L25.8242 22.021ZM17.2007 20.8049H15.675C15.675 20.429 15.675 19.5224 15.1001 19.5224H9.61636C9.21835 19.5224 9.04146 20.1194 9.04146 20.5616V31.3521C9.04146 32.0818 9.28469 32.4798 10.0144 32.4798H14.6799C15.6307 32.4798 15.6528 31.8165 15.6528 31.1973H23.215V34.9784H5.50359C5.3267 34.9784 5.26036 34.9121 5.26036 34.7352V10.7219C5.26036 10.5451 5.3267 10.4787 5.50359 10.4787H23.215V16.9132C22.8612 16.9353 22.6401 17.1564 22.419 17.3112L20.2078 18.8148C19.6772 19.1686 19.2128 19.4782 18.7043 19.8098C18.4831 19.9425 17.3554 20.7828 17.1786 20.7828L17.2007 20.8049ZM5.28248 8.95301C5.28248 7.80321 5.12769 6.34384 6.14483 5.7026C6.32172 5.59204 6.63129 5.39303 6.89663 5.39303H21.6451C22.4853 5.39303 23.2593 6.25539 23.2593 7.09563V9.19624H5.54782C5.37092 9.19624 5.30459 9.12991 5.30459 8.95301H5.28248ZM4 7.0293V41.0149C4 42.5185 5.48148 44 6.98507 44H21.6451C23.3698 44 24.6965 42.4301 24.6965 40.2852V31.1752H25.8242C25.8242 32.5462 25.581 33.7623 26.7971 33.7623H43.0713C43.4693 33.7623 43.9558 33.5412 43.9558 33.1874V21.2692C43.9558 20.6059 42.7617 20.7828 42.2532 20.7828H35.5533C35.0005 20.7606 34.9563 20.5395 34.293 19.8762C33.9171 19.5003 33.5412 19.1465 33.1653 18.7485L32.126 17.6208C31.6838 17.1786 31.529 16.8248 30.6667 16.8248H24.6965V7.71476C24.6965 5.56993 23.3477 4 21.6451 4H6.98507C5.48148 4 4 5.48148 4 6.98507V7.0293Z" fill="#0093DD"/>
<path fill-rule="evenodd" clip-rule="evenodd" d="M27.1951 38.6712C27.1951 38.8481 27.2614 38.9144 27.4383 38.9144C29.2072 38.9144 39.2901 39.0471 40.1746 38.826V37.5435H27.1951V38.6712Z" fill="#666666"/>
<path fill-rule="evenodd" clip-rule="evenodd" d="M28.4775 36.2611H41.435V34.9786H28.4775V36.2611Z" fill="#666666"/>
<path fill-rule="evenodd" clip-rule="evenodd" d="M39.9975 29.1852C39.9975 29.4948 39.8649 29.6938 39.6216 29.7602C39.3121 29.8707 39.2236 29.6496 38.8035 29.6496C38.2949 29.6496 38.0517 30.0034 37.6979 29.5611C37.4768 29.2958 37.3883 28.3008 38.5824 28.6767C39.0909 28.8315 40.0196 28.1239 40.0196 29.1631L39.9975 29.1852ZM36.2164 29.0305C36.2164 31.6618 38.715 31.0647 39.0467 31.109C39.5332 31.1753 39.9533 31.1753 40.3734 30.9321C42.0981 29.937 41.6117 27.2615 39.3563 27.2615C39.0467 27.2615 38.9804 27.3279 38.7814 27.3279L37.9854 27.2615C37.1009 27.2615 36.2164 28.146 36.2164 29.0305Z" fill="#0093DD"/>
<path fill-rule="evenodd" clip-rule="evenodd" d="M13.7285 39.6439C13.7285 39.0026 13.817 38.9142 14.4582 38.9142C15.011 38.9142 15.011 40.0419 14.4582 40.0419C14.2592 40.0419 13.7285 40.0861 13.7285 39.6439ZM12.3576 39.3122C12.3576 40.263 12.7335 41.0148 13.5737 41.3244C15.1879 41.9214 16.7357 40.3736 16.1387 38.7594C15.4311 36.8357 12.3576 37.3222 12.3576 39.3122Z" fill="#666666"/>
<path fill-rule="evenodd" clip-rule="evenodd" d="M12.3576 8.00222H15.9839C16.4261 8.00222 16.3156 7.44942 16.3156 6.87452C16.3156 6.67552 16.1829 6.54285 15.9839 6.54285H12.3576V8.00222Z" fill="#666666"/>
<path fill-rule="evenodd" clip-rule="evenodd" d="M42.6513 36.2611H43.9338V34.9786H42.6513V36.2611Z" fill="#666666"/>
</svg>
