<?xml version="1.0" encoding="UTF-8"?>
<!DOCTYPE svg PUBLIC "-//W3C//DTD SVG 1.1//EN" "http://www.w3.org/Graphics/SVG/1.1/DTD/svg11.dtd">
<!-- Creator: CorelDRAW X6 -->
<svg xmlns="http://www.w3.org/2000/svg" xml:space="preserve" width="31.617mm" height="31.617mm" version="1.1" style="shape-rendering:geometricPrecision; text-rendering:geometricPrecision; image-rendering:optimizeQuality; fill-rule:evenodd; clip-rule:evenodd"
viewBox="0 0 3162 3162"
 xmlns:xlink="http://www.w3.org/1999/xlink">
 <defs>
  <style type="text/css">
   <![CDATA[
    .fil1 {fill:none}
    .fil0 {fill:#ffffff}
   ]]>
  </style>
 </defs>
 <g id="Слой_x0020_1">
  <metadata id="CorelCorpID_0Corel-Layer"/>
  <path class="fil0" d="M1582 209c-173,17 -326,60 -480,135 -134,65 -241,139 -342,238l-60 59 0 31c0,28 2,34 20,51 17,17 24,20 49,20 25,0 33,-3 58,-23 16,-12 35,-30 43,-39 52,-57 183,-147 293,-202 174,-86 341,-124 546,-124 478,0 907,276 1110,713 79,170 112,321 112,513 0,192 -33,343 -112,513 -139,300 -394,533 -702,644 -135,48 -259,69 -408,70 -147,0 -258,-17 -387,-59 -262,-86 -486,-259 -646,-499 -120,-180 -198,-429 -198,-632l0 -51 69 68c78,77 94,85 134,66 39,-19 54,-59 35,-99 -5,-10 -69,-78 -142,-151 -145,-144 -154,-150 -196,-132 -11,5 -81,70 -157,146l-137 138 0 28c-1,35 13,58 42,70 39,16 56,8 131,-66 78,-77 75,-77 75,7 0,61 13,161 33,247 111,497 506,901 1002,1025 125,31 201,41 338,41 169,0 284,-18 443,-71 425,-141 762,-494 884,-928 78,-277 67,-582 -31,-848 -174,-476 -594,-815 -1101,-891 -75,-11 -242,-16 -315,-9zm-245 807c-135,17 -238,130 -238,262 0,195 202,323 377,240 93,-44 151,-135 151,-238 0,-139 -103,-250 -243,-263 -16,-1 -37,-2 -47,-1zm780 52c-22,12 -920,908 -937,935 -13,21 -16,57 -5,77 16,30 66,44 99,27 9,-5 225,-218 480,-474 496,-497 480,-479 466,-523 -14,-42 -64,-63 -103,-42zm-708 106c81,34 96,136 29,195 -37,33 -105,35 -144,3 -33,-27 -45,-51 -45,-94 0,-31 3,-40 18,-62 32,-46 92,-64 142,-43zm563 454c-69,22 -124,68 -156,128 -26,49 -33,82 -30,141 13,270 383,342 499,97 23,-50 32,-103 24,-152 -17,-105 -94,-190 -195,-217 -45,-12 -101,-11 -142,3zm108 142c41,11 75,50 83,94 12,72 -53,141 -126,134 -116,-11 -144,-170 -39,-219 34,-16 49,-17 82,-8z"/>
  <rect class="fil1" width="3162" height="3162"/>
 </g>
</svg>
