<svg width="24" height="24" viewBox="0 0 24 24" fill="none" xmlns="http://www.w3.org/2000/svg">
<path fill-rule="evenodd" clip-rule="evenodd" d="M6.42888 6.42125C6.63091 6.26556 6.86814 6.16177 7.12577 6.11914C7.28331 6.0932 7.75222 6.07837 8.22669 6.07837C8.69931 6.07837 9.17935 6.08949 9.35727 6.11544C9.53891 6.14139 9.68904 6.18401 9.82804 6.25259C9.96705 6.32117 10.0949 6.41569 10.2358 6.54728C10.3692 6.67331 10.4749 6.81417 10.5564 6.98469C10.6361 7.15335 10.6954 7.34796 10.7362 7.58519C10.7825 7.84652 10.8141 8.01889 10.8567 8.19126C10.8993 8.36363 10.9512 8.5397 11.0365 8.81215C11.105 9.029 11.1421 9.1643 11.1625 9.28662C11.1829 9.40895 11.1847 9.51459 11.1792 9.66843C11.1699 9.90566 11.131 10.091 11.0365 10.2819C10.9438 10.4691 10.7955 10.6581 10.5676 10.9028C10.5342 10.938 10.5045 10.9695 10.4767 10.9992C10.3488 11.1345 10.284 11.2012 10.2914 11.2698C10.2988 11.3495 10.3859 11.4662 10.5601 11.6979C10.5861 11.7331 10.6176 11.7758 10.6751 11.8536C10.9679 12.2502 11.2941 12.6209 11.6555 12.9694C12.0169 13.3178 12.4154 13.6403 12.8472 13.9405L13.1271 14.1351L13.457 13.8108C13.6887 13.5828 13.874 13.4327 14.0612 13.3363C14.2521 13.2381 14.443 13.1955 14.6858 13.1825C14.8323 13.1751 14.9305 13.1751 15.0584 13.1973C15.1825 13.2196 15.329 13.264 15.5736 13.3419C15.72 13.3882 15.9091 13.442 16.0981 13.4902C16.2853 13.5384 16.4688 13.5791 16.5986 13.6032C16.8747 13.6533 17.0712 13.6996 17.2287 13.7589C17.39 13.8182 17.5123 13.8924 17.6383 13.9943C17.7625 14.0944 17.8663 14.2037 17.9497 14.3279C18.0349 14.4502 18.1017 14.5874 18.1536 14.7431C18.1962 14.8728 18.2203 14.9618 18.2296 15.1619C18.2388 15.3565 18.237 15.6587 18.2314 16.2165C18.224 16.8133 18.2221 17.1099 18.2055 17.2934C18.1888 17.4843 18.1591 17.5491 18.098 17.6789C17.9849 17.9217 17.807 18.1348 17.5938 18.2961C17.3807 18.4573 17.1323 18.5667 16.8747 18.6019C16.6171 18.6389 16.1018 18.5778 15.5162 18.461C14.936 18.3442 14.2818 18.17 13.7462 17.9773C13.3736 17.8438 12.901 17.6325 12.4432 17.4027C11.9836 17.1729 11.5369 16.9227 11.2144 16.7095C9.79839 15.7736 8.61776 14.58 7.71515 13.1992C6.81254 11.8184 6.18979 10.2504 5.89139 8.56565C5.87101 8.44888 5.85062 8.2932 5.83579 8.13936C5.82096 7.98738 5.8117 7.8354 5.8117 7.72235C5.80984 7.53515 5.81355 7.42395 5.83023 7.32942C5.84877 7.23119 5.88027 7.15335 5.93958 7.03288C6.0582 6.78823 6.22686 6.5825 6.42888 6.42866V6.42125ZM9.79097 7.39614C9.73352 7.26085 9.66309 7.17374 9.56856 7.0996L9.4277 6.99025L8.29898 6.98098C7.64843 6.97542 7.31111 6.97542 7.11094 7.01805C6.93116 7.05697 6.86814 7.13667 6.76806 7.2905C6.72172 7.36093 6.69578 7.40912 6.68095 7.46843C6.66612 7.53144 6.66427 7.60743 6.66612 7.73347C6.67353 8.19682 6.79215 8.83625 6.98491 9.51274C7.17581 10.1892 7.44085 10.8972 7.73369 11.4922C8.02838 12.089 8.33234 12.6061 8.67707 13.0917C9.02181 13.5773 9.40917 14.0277 9.86882 14.491C10.5212 15.149 11.2218 15.7068 11.9743 16.172C12.7268 16.6373 13.533 17.0079 14.4004 17.2878C14.8452 17.4324 15.3623 17.5584 15.8109 17.64C16.2557 17.7215 16.6301 17.7623 16.7969 17.7326C16.9062 17.7141 17.0119 17.664 17.1008 17.5936C17.1916 17.5232 17.2639 17.4342 17.3103 17.3323C17.3418 17.2619 17.3603 17.1933 17.3714 17.0376C17.3825 16.8708 17.3844 16.6113 17.3863 16.1628C17.3863 15.8366 17.3825 15.5678 17.3733 15.3658C17.3659 15.1694 17.3529 15.0433 17.3399 14.9933C17.3269 14.9507 17.2991 14.8988 17.2639 14.8469C17.2269 14.7931 17.1824 14.7394 17.1342 14.6949C17.0601 14.6263 17.0119 14.5874 16.9229 14.554C16.8284 14.5188 16.6838 14.4892 16.4188 14.4373C16.2594 14.4057 16.0611 14.3613 15.8702 14.3112C15.6774 14.263 15.4902 14.2111 15.3586 14.1704C14.9768 14.0499 14.7655 13.9961 14.5783 14.0499C14.3874 14.1055 14.2002 14.2742 13.8666 14.6004C13.6739 14.7894 13.5478 14.908 13.4552 14.9803C13.3514 15.0619 13.2847 15.0897 13.2216 15.0897C13.1104 15.0897 12.8547 14.9618 12.5433 14.7616C12.2393 14.567 11.8798 14.3038 11.548 14.0258C11.32 13.8368 11.0291 13.5532 10.7492 13.2566C10.4693 12.9601 10.2024 12.6524 10.0226 12.4115C9.84287 12.1687 9.65567 11.8925 9.51667 11.6627C9.3721 11.4255 9.27387 11.2309 9.27387 11.1641C9.27387 11.077 9.30723 10.9881 9.39805 10.8657C9.48145 10.7545 9.61675 10.61 9.82433 10.4042C9.93554 10.293 10.0449 10.1781 10.1283 10.0799C10.2098 9.98721 10.2673 9.91308 10.2803 9.87972C10.3229 9.78334 10.3377 9.68325 10.3266 9.54981C10.3136 9.40895 10.2692 9.22917 10.1913 8.97896C10.1505 8.84737 10.1042 8.675 10.0597 8.49892C10.0171 8.32656 9.97817 8.15048 9.95407 8.01518C9.90218 7.72976 9.85399 7.53515 9.79283 7.39244L9.79097 7.39614Z" fill="white"/>
<path d="M12 1C15.0377 1 17.7882 2.23067 19.7788 4.22123C21.7693 6.21179 23 8.96226 23 12C23 15.0377 21.7693 17.7882 19.7788 19.7788C17.7882 21.7693 15.0377 23 12 23C10.9176 23 9.86858 22.8425 8.87515 22.5478C7.92435 22.2661 7.0273 21.8602 6.20253 21.3486L1.60977 22.9722C1.37254 23.0556 1.1112 22.9314 1.0278 22.6942C0.985173 22.5756 0.996293 22.4514 1.04634 22.3457L2.77557 17.9921C2.22696 17.1488 1.79141 16.2258 1.48745 15.2435C1.17051 14.2148 1 13.1269 1 12.0019C1 8.96411 2.23067 6.21365 4.22123 4.22308C6.21179 2.23252 8.96226 1.00185 12 1.00185V1ZM19.1301 4.86807C17.3045 3.04246 14.7838 1.91373 12 1.91373C9.21618 1.91373 6.69368 3.04246 4.86992 4.86807C3.04431 6.69368 1.91559 9.21432 1.91559 11.9981C1.91559 13.0361 2.07127 14.035 2.3604 14.9729C2.66066 15.9441 3.10362 16.8541 3.66521 17.677C3.74676 17.7975 3.77085 17.9569 3.71154 18.1014L2.25291 21.773L6.108 20.4089C6.23774 20.3644 6.38416 20.3756 6.50834 20.4571C7.31087 20.9798 8.19309 21.3894 9.13277 21.6674C10.0391 21.9361 11.001 22.0789 12 22.0789C14.7838 22.0789 17.3063 20.9501 19.1301 19.1245C20.9557 17.2989 22.0844 14.7783 22.0844 11.9944C22.0844 9.21062 20.9557 6.68812 19.1301 4.86436V4.86807Z" fill="white"/>
</svg>
