<svg width="56" height="56" viewBox="0 0 56 56" fill="none" xmlns="http://www.w3.org/2000/svg">
<path fill-rule="evenodd" clip-rule="evenodd" d="M24.8241 30.4601C25.0676 30.5476 25.2502 30.635 25.4632 30.7516C25.6154 30.8391 25.7675 30.8974 25.8588 30.9557C26.3153 31.1306 26.8326 31.2181 27.35 31.1597C27.776 31.1306 28.1717 31.014 28.5064 30.8099C29.0238 30.4893 29.3281 30.1978 29.5411 29.7897C29.7846 29.3524 29.9672 28.7402 30.1802 27.8365L30.6975 25.6502L32.1887 27.3993C32.4322 27.6908 32.6756 28.2447 32.9191 28.8568C33.2234 29.7022 33.4973 30.6933 33.619 31.1597C33.9538 32.4132 34.319 34.2789 34.3798 36.0279C34.4103 37.3689 34.2581 38.6515 33.7712 39.6135C33.0408 41.0127 31.8235 41.9747 30.4541 42.4411C29.0238 42.9367 27.4413 42.9076 26.011 42.2662C24.3068 41.5083 23.3938 40.3714 22.9373 39.0596C22.5113 37.8353 22.5113 36.4652 22.6634 35.0951C22.6939 34.6287 22.846 33.521 23.0286 32.6173C23.1503 31.9468 23.3329 31.3055 23.4851 30.9848L23.9416 30.1395L24.8546 30.431L24.8241 30.4601ZM28.5977 18.1876C28.5977 18.3625 28.5977 18.5374 28.5977 18.6832C28.5977 18.8872 28.5977 19.033 28.5977 19.1204L28.6281 20.578V20.6071V22.1813V22.2396L28.5673 23.7263C28.5673 23.9595 28.5369 24.1052 28.5369 24.251C28.5369 24.3384 28.5064 24.5133 28.476 24.7466V24.8923C28.476 25.0089 28.4456 25.0964 28.4456 25.2421V25.3296L28.4151 25.3879L28.3543 25.5919C28.3847 26 28.2934 26.379 28.2021 26.7288L28.1717 26.8454V26.8746L27.9586 27.6033L27.9282 27.6908L27.8978 27.7491L27.8673 27.8074C27.8065 27.924 27.8065 27.9532 27.7456 28.0406V28.0698C27.6543 28.1864 27.5935 28.2447 27.5022 28.3321L26.9544 28.8568L26.224 28.4779C25.5545 28.1572 25.1589 27.6616 24.7937 27.1952V27.1661C24.7024 27.0495 24.5807 26.8454 24.4589 26.6705C24.3372 26.4956 24.4589 26.4373 24.3372 26.3499L24.0024 26.1749L23.8503 25.8251C23.8199 25.7377 23.6068 25.3587 23.3329 24.9506C23.2416 25.1838 23.1199 25.4462 22.9982 25.7085C22.7243 26.2624 22.42 26.8454 22.2374 27.1952C22.1157 27.6325 21.9635 28.0698 21.7809 28.507C21.5679 29.0609 21.3853 29.6439 21.2027 30.2269C21.1723 30.3435 21.0505 30.8682 20.9592 31.4221C20.8071 32.1217 20.6549 32.8796 20.5027 33.3752C20.5027 33.7542 20.4723 34.2497 20.4114 34.8328C20.3201 35.7073 20.2289 36.7859 20.2897 37.6312C20.2897 37.777 20.3506 37.9519 20.381 38.1268C20.4419 38.4183 20.5027 38.6807 20.5027 39.0013L20.5332 41.0127L18.7681 39.9342C18.2508 39.6135 17.703 39.1762 17.1856 38.7098C16.6683 38.2143 16.1814 37.6895 15.8162 37.194C15.5423 36.8442 14.9336 35.853 14.5076 34.9494C14.2641 34.4246 14.0815 33.8708 14.0511 33.4044C13.9598 33.2003 13.8989 32.9671 13.8381 32.7047C13.7772 32.3549 13.7164 31.9468 13.6859 31.5096V31.4221L13.7164 31.3055C13.5642 30.8099 13.5642 30.1395 13.6555 29.4398C13.8077 28.2155 14.1424 26.758 14.2946 26.2041C14.5076 25.5045 14.7511 24.7757 15.0554 24.0469C15.3293 23.3765 15.6336 22.706 15.9379 22.123C16.2727 21.4525 17.6117 19.0913 18.6768 17.3714C19.1942 16.526 19.7115 15.8264 20.1376 15.3891L20.168 15.3308L20.2289 15.2434C20.8679 14.2814 22.3895 12.4449 23.9416 10.725C25.3719 9.15084 26.8631 7.66414 27.7456 6.99367L28.3847 6.49811L29.0542 6.90622C29.2064 7.02282 29.5715 7.31433 29.8454 7.57669C29.9672 7.72244 30.0889 7.83905 30.2106 7.9848C30.7888 8.45121 31.6105 9.41319 32.0366 9.87961L32.2192 10.0837C32.6452 10.5501 33.0408 11.0456 33.4669 11.5412C33.5886 11.7161 33.7408 11.891 34.1059 12.2991C34.6537 12.9696 35.2624 13.6984 35.8406 14.5146C36.4492 15.3308 37.0274 16.147 37.6057 16.9633C38.1534 17.7795 38.6708 18.5666 39.2186 19.4119C39.7359 20.2573 40.2533 21.1318 40.7402 22.0647C41.288 23.085 41.714 23.9886 42.0792 24.8923C42.4444 25.7668 42.7487 26.7288 43.1443 27.924L43.1748 28.0115V28.0406L43.3878 29.2066V29.2941V29.4107L43.3573 31.393V31.4513C43.3573 31.6262 43.3269 31.8011 43.2965 31.976C43.2661 32.1509 43.2661 32.3258 43.2052 32.5007V32.559L43.053 33.2295L43.0226 33.3169L42.9922 33.4044L42.9617 33.4627C42.9009 33.8999 42.7487 34.3955 42.5357 34.8911C42.2314 35.5907 41.8053 36.3486 41.5314 36.6984C41.3488 37.0191 41.0749 37.4272 40.7706 37.7478C40.5272 38.0394 40.2533 38.3017 39.9794 38.5058C39.7968 38.739 39.5533 38.9722 39.3099 39.1762C38.9142 39.5261 38.4578 39.8467 38.1534 40.0216L36.1449 41.1002L36.4797 38.9139C36.6014 38.0977 36.6927 37.4563 36.6927 36.815C36.7231 36.2029 36.6927 35.5324 36.6014 34.6579L36.4188 33.1129C36.084 30.8682 35.4754 28.7402 34.6537 26.758C33.8016 24.7757 32.7365 22.8809 31.4279 21.1318C31.0323 20.6071 30.3628 19.9075 29.7846 19.3245C29.3585 18.8872 28.9629 18.4791 28.7194 18.1585L28.6281 18.1002L28.5977 18.1876ZM12.4078 24.3676C12.3773 24.4259 12.3165 24.6591 12.2252 24.9215C12.1339 25.2713 12.0121 25.6502 11.86 25.9417C11.8296 26.2916 11.7078 26.7288 11.6165 27.1661C11.5557 27.4576 11.4948 27.7491 11.4644 27.8657C11.4035 28.1864 11.3731 28.5362 11.3426 28.886C11.3122 29.2941 11.2818 29.6731 11.2818 29.9937C11.2513 30.6642 11.3122 31.393 11.3731 32.1217C11.4644 32.8505 11.5861 33.5501 11.7687 34.1331C12.1339 35.4158 12.5599 36.4361 13.1077 37.3689C13.6555 38.2726 14.325 39.1179 15.1771 40.0508C15.3901 40.2257 15.5727 40.4006 15.7857 40.5755C16.0901 40.867 16.4553 41.1876 17.1248 41.7124C19.5289 43.5197 22.8156 44.3068 24.1242 44.5983C24.3676 44.6566 24.5502 44.6858 24.7328 44.7441L26.1023 44.8898C27.7152 45.0064 29.4194 45.0356 31.0323 44.8607C32.4626 44.7149 33.8625 44.4234 35.1406 43.9861C36.1753 43.6363 36.997 43.2865 37.7578 42.9076C38.5186 42.5286 39.249 42.0622 40.0707 41.4792C40.2228 41.3626 40.3446 41.2751 40.4359 41.2168C40.5272 41.1293 40.6489 41.0419 40.7097 40.9836C40.7402 40.9544 40.801 40.8961 40.8315 40.867C41.0141 40.6921 41.1662 40.5463 41.3793 40.3714L41.4097 40.3423C41.4097 40.3423 41.3793 40.3714 41.4097 40.3423L41.4401 40.3131C41.5618 40.1674 41.6227 40.1091 41.7749 40.0216L42.7487 38.8847C43.7225 37.5729 44.4833 36.1154 44.9703 34.5704C45.4267 33.0546 45.6398 31.4513 45.5485 29.8188C45.4876 28.5945 45.1833 27.341 45.0007 26.5248C44.9398 26.2332 44.879 26 44.8485 25.796C44.6659 25.4462 44.5138 24.9798 44.3616 24.6008C44.3007 24.455 44.2703 24.3093 44.2094 24.1927C44.1182 23.9886 44.0573 23.8137 43.966 23.6097C43.8138 23.3182 43.6921 22.9975 43.5704 22.6768C43.4486 22.5019 43.2965 22.2687 43.2052 22.0355C43.1139 21.8606 43.0226 21.6566 42.9617 21.4525C42.8096 21.2776 42.7791 21.2193 42.7183 21.1027C41.6836 19.2079 40.5576 17.488 39.4012 15.8555C38.2447 14.2231 37.0274 12.6489 35.7797 11.1331L32.8887 7.72244C32.7365 7.57669 32.3104 7.11027 31.7931 6.52726C30.7584 5.41952 29.2977 3.84538 28.476 3C28.263 3.20406 28.0499 3.37896 27.9891 3.43726C27.5935 3.84538 27.3196 4.07858 27.0457 4.37009L26.7414 4.6616L20.7766 11.0165L20.2593 11.6287L19.7115 12.2991C19.0724 13.0571 18.2812 14.1065 17.49 15.1851C16.79 16.147 16.1205 17.1382 15.6336 17.8961C15.0858 18.7998 14.2033 20.2865 13.5033 21.7149C13.0468 22.6477 12.6512 23.5222 12.4991 24.1635L12.4686 24.3093L12.4078 24.4259V24.3676Z" fill="#0093DD"/>
<path fill-rule="evenodd" clip-rule="evenodd" d="M47.9228 52.9999V46.3827L45.5795 46.4118V49.7059V50.7845H44.4535H42.3537H39.8887H38.7323V49.7059V47.2572L38.7627 46.441H36.4499V47.2572V48.8314V49.7059V50.7845H35.3239H34.1675H32.4937L30.7286 50.7553H29.6026V49.6767V46.4118H27.2898V49.7059V50.7845H26.1638H24.3987H22.7554H21.5989H20.473L20.4425 49.7059V48.8314V47.2572V46.4118L18.1601 46.441V49.7059V50.7845H17.0341H16.9124H16.2429H14.6604H12.4388L11.3128 50.7553V49.6767V46.4118L9 46.3827V52.9708L47.9228 52.9999Z" fill="#666666"/>
</svg>
