<?xml version="1.0" encoding="UTF-8"?>
<!DOCTYPE svg PUBLIC "-//W3C//DTD SVG 1.1//EN" "http://www.w3.org/Graphics/SVG/1.1/DTD/svg11.dtd">
<!-- Creator: CorelDRAW X6 -->
<svg xmlns="http://www.w3.org/2000/svg" xml:space="preserve" width="31.617mm" height="31.617mm" version="1.1" style="shape-rendering:geometricPrecision; text-rendering:geometricPrecision; image-rendering:optimizeQuality; fill-rule:evenodd; clip-rule:evenodd"
viewBox="0 0 3162 3162"
 xmlns:xlink="http://www.w3.org/1999/xlink">
 <defs>
  <style type="text/css">
   <![CDATA[
    .fil1 {fill:none}
    .fil0 {fill:#ffffff}
   ]]>
  </style>
 </defs>
 <g id="Слой_x0020_1">
  <metadata id="CorelCorpID_0Corel-Layer"/>
  <path class="fil0" d="M2293 130c-6,1 -389,152 -850,336l-838 333 -44 0c-215,0 -387,111 -449,288 -31,90 -31,88 -31,832 0,747 0,739 32,832 39,112 124,199 240,246 102,41 11,38 1228,38l1098 0 55 -14c136,-34 239,-114 294,-226 27,-56 39,-100 47,-174 8,-76 8,-1326 0,-1406 -21,-212 -137,-346 -343,-401 -38,-10 -94,-11 -912,-14l-872 -3 684 -272c376,-149 693,-277 703,-283 57,-34 23,-124 -42,-111zm357 798c132,15 221,71 267,167 36,76 35,53 36,824 1,656 1,707 -9,745 -25,97 -79,167 -158,205 -91,43 -7,40 -1158,42 -681,1 -1057,0 -1101,-4 -141,-13 -231,-65 -281,-164 -40,-80 -38,-37 -38,-827 0,-656 1,-715 10,-751 36,-138 134,-220 286,-238 64,-7 2081,-8 2147,-1zm-1980 200c-32,18 -32,15 -32,235l0 204 17 17 17 17 907 0c850,0 908,-1 919,-10 25,-20 26,-28 26,-233l0 -197 -20 -20 -20 -20 -901 0c-644,0 -905,2 -913,7zm1169 233l0 117 -539 0 -539 0 0 -117 0 -117 539 0 539 0 0 117zm562 0l0 117 -220 0 -220 0 0 -117 0 -117 220 0 220 0 0 117zm-154 457c-151,18 -284,110 -355,245 -95,182 -57,405 92,546 168,159 423,169 606,25 72,-57 133,-152 157,-246 17,-64 17,-164 0,-227 -59,-224 -273,-371 -501,-344zm163 139c76,28 139,80 181,149 30,50 40,85 44,151 4,71 -4,110 -35,171 -40,80 -108,138 -198,169 -54,18 -139,19 -196,1 -210,-66 -303,-302 -195,-493 39,-69 124,-133 204,-155 47,-13 150,-9 195,8zm-1682 297c-46,13 -74,29 -107,62 -107,107 -89,285 38,366 95,60 216,48 295,-31 123,-123 75,-333 -87,-391 -38,-13 -102,-16 -139,-6zm626 -3c-63,13 -131,67 -161,126 -46,89 -27,202 45,273 116,116 314,80 384,-70 21,-45 25,-120 10,-166 -32,-97 -114,-161 -214,-166 -21,-1 -49,0 -63,3zm-505 137c34,22 49,52 49,94 0,42 -16,72 -50,95 -94,62 -211,-40 -164,-142 12,-26 42,-52 69,-61 26,-8 72,-2 96,14zm600 -9c45,21 71,66 66,119 -5,57 -62,102 -121,96 -113,-11 -142,-161 -41,-211 36,-18 63,-19 96,-4z"/>
  <rect class="fil1" width="3162" height="3162"/>
 </g>
</svg>
