<?xml version="1.0" encoding="UTF-8"?>
<!DOCTYPE svg PUBLIC "-//W3C//DTD SVG 1.1//EN" "http://www.w3.org/Graphics/SVG/1.1/DTD/svg11.dtd">
<!-- Creator: CorelDRAW X6 -->
<svg xmlns="http://www.w3.org/2000/svg" xml:space="preserve" width="31.617mm" height="31.617mm" version="1.1" style="shape-rendering:geometricPrecision; text-rendering:geometricPrecision; image-rendering:optimizeQuality; fill-rule:evenodd; clip-rule:evenodd"
viewBox="0 0 3162 3162"
 xmlns:xlink="http://www.w3.org/1999/xlink">
 <defs>
  <style type="text/css">
   <![CDATA[
    .fil1 {fill:none}
    .fil0 {fill:#ffffff}
   ]]>
  </style>
 </defs>
 <g id="Слой_x0020_1">
  <metadata id="CorelCorpID_0Corel-Layer"/>
  <path class="fil0" d="M2071 92c-16,10 -32,49 -203,509l-186 498 -20 5c-57,14 -84,24 -115,45l-35 23 -438 0 -438 0 0 -21c0,-11 -5,-37 -12,-57 -39,-118 -150,-198 -274,-198 -40,0 -45,1 -61,17 -13,13 -17,23 -17,38 0,41 27,62 82,62 79,0 153,64 162,139l3 29 -21 7c-12,4 -35,20 -53,36 -59,54 -80,134 -54,209 12,36 52,83 89,105 14,8 26,17 26,19 0,32 57,411 68,448 33,119 108,220 209,286l34 22 -42 31c-48,36 -87,83 -117,142 -115,223 2,497 244,577 40,13 58,15 120,16 84,0 125,-8 190,-41 141,-70 226,-209 227,-366 0,-70 -13,-127 -41,-184 -22,-45 -23,-45 -10,-50 7,-3 23,-9 36,-15 124,-52 308,-48 443,9l27 11 -22 45c-32,65 -42,110 -42,183 0,69 10,115 38,174 48,102 135,178 248,217 41,14 56,16 120,17 84,0 125,-8 191,-41 106,-52 187,-154 218,-272 13,-50 13,-143 0,-194 -12,-45 -37,-101 -61,-136 -22,-32 -73,-83 -106,-106l-25 -18 37 -24c73,-48 147,-135 182,-213 26,-59 35,-104 61,-292 14,-106 28,-202 30,-212 2,-14 9,-22 28,-33 31,-18 63,-53 81,-87 19,-38 22,-108 6,-152 -15,-40 -45,-77 -80,-97l-25 -15 -2 -227c-3,-246 -5,-269 -41,-358l-14 -34 13 -13c43,-41 0,-111 -58,-94 -15,4 -19,3 -26,-8 -20,-28 -76,-84 -120,-116 -50,-38 -120,-74 -180,-93 -42,-13 -141,-30 -180,-30 -14,0 -25,-1 -25,-2 0,-1 5,-18 12,-37 14,-42 11,-61 -13,-81 -21,-17 -42,-19 -67,-4zm211 259c92,23 197,88 252,155 19,24 22,29 15,36 -12,12 -716,502 -718,500 -1,-1 58,-161 131,-356l132 -354 71 3c40,2 91,9 118,15zm357 355c11,37 12,60 14,254l2 213 -393 0c-228,0 -393,-2 -393,-5 0,-3 122,-90 271,-195 149,-104 317,-222 374,-261 116,-81 103,-81 125,-5zm-878 530c71,36 103,129 68,197 -13,26 -42,55 -69,69 -32,17 -96,18 -128,2 -49,-24 -80,-70 -84,-125 -6,-67 41,-132 110,-155 23,-8 78,-2 104,11zm-325 73c-6,25 -5,103 0,123l4 16 -439 0c-406,0 -440,-1 -459,-10 -30,-15 -42,-36 -42,-69 0,-33 13,-54 42,-69 19,-9 53,-10 458,-10l438 0 -4 19zm1293 -9c40,19 55,72 31,112 -23,37 -13,36 -431,36l-379 0 5 -22c3,-12 5,-38 5,-57 0,-19 -2,-45 -5,-57l-5 -22 379 0c342,0 381,1 400,10zm-1189 286c52,35 89,47 155,47 67,0 103,-11 153,-46l29 -20 383 0c370,0 383,0 383,11 0,34 -49,368 -59,402 -19,63 -48,112 -101,165 -55,54 -107,85 -177,102 -44,11 -67,12 -668,12 -601,0 -624,0 -668,-12 -109,-28 -200,-100 -252,-199 -30,-57 -36,-86 -62,-279 -13,-97 -25,-182 -26,-189l-2 -13 442 0 442 0 29 20zm-451 798c21,5 53,15 69,24l30 15 -49 48c-62,61 -102,115 -139,188 -40,77 -39,110 1,131 21,11 52,7 65,-8 5,-6 21,-34 36,-63 29,-58 53,-94 90,-133 33,-35 77,-75 84,-75 6,0 33,58 42,93 9,32 9,111 0,143 -27,103 -123,193 -227,215 -165,34 -328,-79 -354,-247 -14,-93 15,-178 85,-248 75,-75 168,-103 268,-82zm1214 0c151,32 257,182 234,329 -12,75 -38,123 -94,176 -168,156 -442,68 -489,-158 -11,-51 -11,-66 0,-115 9,-40 36,-105 45,-105 3,0 26,20 51,44 52,50 96,110 126,173 25,52 35,63 59,68 22,4 52,-9 61,-26 15,-29 -3,-84 -56,-166 -36,-55 -46,-68 -107,-129l-50 -51 31 -16c59,-30 122,-38 188,-24z"/>
  <rect class="fil1" width="3162" height="3162"/>
 </g>
</svg>
