<?xml version="1.0" encoding="UTF-8"?>
<!DOCTYPE svg PUBLIC "-//W3C//DTD SVG 1.1//EN" "http://www.w3.org/Graphics/SVG/1.1/DTD/svg11.dtd">
<!-- Creator: CorelDRAW X6 -->
<svg xmlns="http://www.w3.org/2000/svg" xml:space="preserve" width="31.617mm" height="31.617mm" version="1.1" style="shape-rendering:geometricPrecision; text-rendering:geometricPrecision; image-rendering:optimizeQuality; fill-rule:evenodd; clip-rule:evenodd"
viewBox="0 0 3162 3162"
 xmlns:xlink="http://www.w3.org/1999/xlink">
 <defs>
  <style type="text/css">
   <![CDATA[
    .fil1 {fill:none}
    .fil0 {fill:#ffffff}
   ]]>
  </style>
 </defs>
 <g id="Слой_x0020_1">
  <metadata id="CorelCorpID_0Corel-Layer"/>
  <path class="fil0" d="M793 87c-86,6 -208,26 -290,46 -217,54 -356,138 -407,246l-12 26 0 988 0 988 12 26c74,157 342,265 723,294 108,8 309,3 343,-8 50,-16 58,-80 15,-109 -19,-13 -24,-13 -64,-9 -73,8 -295,4 -378,-6 -217,-27 -368,-75 -470,-150 -53,-39 -57,-51 -60,-166l-2 -99 23 15c131,83 342,138 594,157 108,8 309,3 343,-8 50,-16 58,-80 15,-109 -19,-13 -24,-13 -64,-9 -73,8 -295,4 -378,-6 -217,-27 -368,-75 -470,-150 -53,-39 -57,-51 -60,-166l-2 -99 23 15c131,83 342,138 594,157 108,8 309,3 343,-8 50,-16 58,-80 15,-109 -19,-13 -24,-13 -64,-9 -73,8 -295,4 -378,-6 -217,-27 -368,-75 -470,-150 -53,-39 -57,-51 -60,-166l-2 -99 23 15c237,150 725,204 1118,124 247,-50 411,-139 468,-255l19 -38 0 -419 0 -419 -19 -38c-33,-66 -101,-125 -198,-170 -200,-94 -517,-139 -821,-116zm390 132c208,23 393,85 475,159 63,57 63,99 0,155 -82,74 -262,134 -478,160 -111,13 -341,13 -445,0 -208,-26 -348,-69 -449,-136 -53,-35 -75,-65 -75,-102 0,-37 22,-66 75,-102 180,-120 543,-174 898,-135zm-893 485c86,44 219,81 363,103 363,56 792,3 1007,-123 22,-13 41,-24 42,-24 1,0 2,42 2,94 0,108 -2,113 -47,154 -82,74 -262,134 -478,160 -110,13 -340,13 -445,0 -219,-27 -368,-75 -470,-150 -53,-39 -57,-51 -60,-166l-2 -99 23 15c13,8 42,24 64,35zm0 375c86,44 219,81 363,103 363,56 792,3 1007,-123 22,-13 41,-24 42,-24 1,0 2,42 2,94 0,108 -2,113 -47,154 -82,74 -262,134 -478,160 -110,13 -340,13 -445,0 -219,-27 -368,-75 -470,-150 -53,-39 -57,-51 -60,-166l-2 -99 23 15c13,8 42,24 64,35zm1755 509c-96,8 -218,28 -303,49 -208,53 -339,133 -390,236l-19 39 0 419 0 419 19 38c51,104 183,184 391,237 374,96 863,63 1141,-76 91,-45 154,-103 184,-167 12,-26 12,-31 12,-451 0,-420 0,-425 -12,-451 -43,-92 -148,-165 -316,-220 -196,-64 -464,-92 -706,-72zm273 122c163,9 301,34 422,77 63,22 87,34 139,68 75,49 94,101 57,152 -48,67 -203,134 -386,169 -159,30 -404,37 -567,18 -216,-26 -396,-86 -478,-160 -63,-57 -63,-99 0,-155 97,-87 326,-154 581,-168 109,-6 123,-6 232,0zm-837 462c48,34 155,76 261,103 332,85 759,70 1053,-38 26,-9 72,-30 103,-47 31,-16 58,-30 59,-30 2,0 2,43 0,95 -3,111 -7,123 -60,162 -101,75 -251,123 -470,150 -105,13 -335,13 -445,0 -216,-26 -396,-86 -478,-160 -45,-40 -47,-46 -47,-154 0,-52 2,-94 4,-94 2,0 11,5 19,11zm0 375c48,34 155,76 261,103 332,85 759,70 1053,-38 26,-9 72,-30 103,-47 31,-16 58,-30 59,-30 2,0 2,43 0,95 -3,111 -7,123 -60,162 -101,75 -251,123 -470,150 -105,13 -335,13 -445,0 -216,-26 -396,-86 -478,-160 -45,-40 -47,-46 -47,-154 0,-52 2,-94 4,-94 2,0 11,5 19,11z"/>
  <rect class="fil1" width="3162" height="3162"/>
 </g>
</svg>
