<svg width="24" height="24" viewBox="0 0 24 24" fill="none" xmlns="http://www.w3.org/2000/svg">
<path fill-rule="evenodd" clip-rule="evenodd" d="M20.8 19.75L16.475 15.425C17.55 14.125 18.2 12.45 18.2 10.6C18.2 6.4 14.8 3 10.6 3C6.4 3 3 6.4 3 10.6C3 14.8 6.4 18.2 10.6 18.2C12.425 18.2 14.1 17.55 15.4 16.475L19.725 20.8C20.025 21.1 20.5 21.1 20.8 20.8C21.1 20.5 21.1 20.025 20.8 19.75ZM10.6 16.675C7.25 16.675 4.5 13.95 4.5 10.6C4.5 7.25 7.225 4.5 10.6 4.5C13.95 4.5 16.7 7.225 16.7 10.6C16.7 13.95 13.975 16.675 10.6 16.675Z" fill="#666666"/>
</svg>
