<svg width="56" height="56" viewBox="0 0 56 56" fill="none" xmlns="http://www.w3.org/2000/svg">
<rect width="56" height="56" fill="white"/>
<path fill-rule="evenodd" clip-rule="evenodd" d="M51.488 49.059C50.1021 49.059 48.9761 50.1666 48.9761 51.5298C48.9761 52.893 50.1021 54.0006 51.488 54.0006C52.874 54.0006 54 52.893 54 51.5298C54 50.1666 52.874 49.059 51.488 49.059ZM51.488 52.3534C51.0261 52.3534 50.6507 51.9842 50.6507 51.5298C50.6507 51.0754 51.0261 50.7062 51.488 50.7062C51.95 50.7062 52.3254 51.0754 52.3254 51.5298C52.3254 51.9842 51.95 52.3534 51.488 52.3534Z" fill="#666666"/>
<path fill-rule="evenodd" clip-rule="evenodd" d="M7.02394 4.47082C7.02394 3.10761 5.89788 2 4.51197 2C3.12605 2 2 3.10761 2 4.47082C2 5.83403 3.12605 6.94164 4.51197 6.94164C5.89788 6.94164 7.02394 5.83403 7.02394 4.47082ZM3.67465 4.47082C3.67465 4.01641 4.05 3.64721 4.51197 3.64721C4.97394 3.64721 5.34929 4.01641 5.34929 4.47082C5.34929 4.92522 4.97394 5.29442 4.51197 5.29442C4.05 5.29442 3.67465 4.92522 3.67465 4.47082Z" fill="#666666"/>
<path fill-rule="evenodd" clip-rule="evenodd" d="M47.0709 34.7172L45.4251 31.4511C45.7716 30.7411 46.0892 30.0311 46.3201 29.3211L49.8427 28.1567V18.6994L46.3201 17.535C46.0603 16.825 45.7716 16.115 45.4251 15.405L47.0709 12.139L40.2856 5.46495L36.9652 7.08376C36.2434 6.74295 35.5216 6.43055 34.7997 6.20335L33.6159 2.73853H24.0012L22.8174 6.20335C22.0955 6.45895 21.3737 6.74295 20.6519 7.08376L17.3315 5.46495L10.5463 12.139L12.192 15.405C11.8456 16.115 11.5279 16.825 11.297 17.535L7.77443 18.6994V28.1567L11.297 29.3211C11.5279 30.0311 11.8456 30.7127 12.192 31.4227L11.1237 33.3539H6.12866V49.8545H11.9899V47.3837H18.342L20.854 49.8545H25.3871V50.6781C25.3871 52.4957 26.8885 53.9725 28.7364 53.9725C30.5843 53.9725 32.0857 52.4957 32.0857 50.6781V49.8545H37.9469C39.3328 49.8545 40.4589 48.7469 40.4589 47.3837C40.4589 46.7588 40.199 46.1624 39.7948 45.7364C40.199 45.3104 40.4589 44.714 40.4589 44.0892C40.4589 43.4644 40.199 42.868 39.7948 42.442C40.1124 42.1012 40.3434 41.6468 40.4011 41.164L46.9265 34.6888L47.0709 34.7172ZM13.9533 31.0819C13.4913 30.2015 13.116 29.3211 12.8272 28.4407L12.7118 28.0431L9.5357 26.9923V19.9207L12.7118 18.8698L12.8272 18.4722C13.116 17.5918 13.4913 16.7114 13.9533 15.831L14.1554 15.4618L12.654 12.5082L17.7357 7.50976L20.7385 8.98657L21.1138 8.78777C22.0089 8.33337 22.904 7.96416 23.7991 7.68016L24.2033 7.56656L25.2716 4.44254H32.461L33.5293 7.56656L33.9335 7.68016C34.8286 7.96416 35.7237 8.33337 36.6188 8.78777L36.9941 8.98657L39.9969 7.50976L45.0786 12.5082L43.5772 15.4618L43.7793 15.831C44.2413 16.7114 44.6166 17.5918 44.9054 18.4722L45.0209 18.8698L48.1969 19.9207V26.9923L45.0209 28.0431L44.9054 28.4407C44.6166 29.3211 44.2413 30.2015 43.7793 31.0819L43.5772 31.4511L45.0786 34.4048L40.1124 39.318C40.0835 39.2612 40.0258 39.2044 39.968 39.1476C40.3723 38.7216 40.6321 38.1252 40.6321 37.5004C40.6321 36.2224 39.6216 35.1716 38.3511 35.058C41.9025 32.2463 43.9814 28.0431 43.9814 23.4707C43.9814 15.2914 37.1962 8.61737 28.8807 8.61737C20.5653 8.61737 13.7801 15.2914 13.7801 23.4707C13.7801 27.9863 15.8589 32.2179 19.4103 35.0296H12.2209L14.2132 31.4795L14.011 31.0819H13.9533ZM38.8997 44.1176C38.8997 44.572 38.5244 44.9412 38.0624 44.9412H31.335C30.873 44.9412 30.4976 44.572 30.4976 44.1176C30.4976 43.6632 30.873 43.294 31.335 43.294H38.0624C38.5244 43.294 38.8997 43.6632 38.8997 44.1176ZM26.8019 23.4707H30.8441L32.1723 22.1643V18.529C33.0962 18.529 33.8469 19.2674 33.8469 20.1763V23.9535L30.9885 26.7651H26.6575L23.7991 23.9535V20.1763C23.7991 19.2674 24.5498 18.529 25.4737 18.529V22.1643L26.8019 23.4707ZM27.1483 28.4123H30.4976V31.7067H27.1483V28.4123ZM32.1723 27.9295L35.5216 24.6351V20.1763C35.5216 18.3586 34.0202 16.8818 32.1723 16.8818H30.4976V21.4827L30.1512 21.8235H27.4948L27.1483 21.4827V16.8818H25.4737C23.6258 16.8818 22.1244 18.3586 22.1244 20.1763V24.6351L25.4737 27.9295V31.7067H23.4526L23.3948 31.7635C20.5364 29.9459 18.7462 26.8219 18.7462 23.4707C18.7462 18.0178 23.2505 13.559 28.823 13.559C34.3666 13.559 38.8997 17.9894 38.8997 23.4707C38.8997 26.8219 37.1962 29.8891 34.3666 31.7351H32.2012V27.9579L32.1723 27.9295ZM40.5744 23.4707C40.5744 17.109 35.2906 11.9118 28.823 11.9118C22.3554 11.9118 17.0716 17.109 17.0716 23.4707C17.0716 27.2763 19.0061 30.8263 22.1533 32.9847L20.9406 34.1776C17.447 31.7067 15.3681 27.7307 15.3681 23.4707C15.3681 16.2002 21.4026 10.2646 28.7941 10.2646C36.1857 10.2646 42.2202 16.2002 42.2202 23.4707C42.2202 27.5603 40.3434 31.3091 37.1385 33.8084C37.0519 33.2119 36.7342 32.7007 36.3011 32.3315C38.9864 30.1447 40.5455 26.9355 40.5455 23.4707H40.5744ZM38.0624 36.6768C38.5244 36.6768 38.8997 37.046 38.8997 37.5004C38.8997 37.9548 38.5244 38.324 38.0624 38.324H31.335C30.873 38.324 30.4976 37.9548 30.4976 37.5004C30.4976 37.046 30.873 36.6768 31.335 36.6768H38.0624ZM31.335 41.6184C30.873 41.6184 30.4976 41.2492 30.4976 40.7948C30.4976 40.3404 30.873 39.9712 31.335 39.9712H38.0624C38.5244 39.9712 38.8997 40.3404 38.8997 40.7948C38.8997 41.2492 38.5244 41.6184 38.0624 41.6184H31.335ZM10.3441 48.2357H7.83218V35.0296H10.3441V48.2357ZM21.6047 48.2357L19.0927 45.7648H12.0188V36.6768H20.7674L24.1167 33.3823H34.6842C35.1462 33.3823 35.5216 33.7516 35.5216 34.206C35.5216 34.6604 35.1462 35.0296 34.6842 35.0296H25.9357L22.3265 38.5796L23.5103 39.744L25.4448 37.8412V48.2357H21.6047ZM28.823 52.3537C27.899 52.3537 27.1483 51.6153 27.1483 50.7065V36.6768H28.9674C28.8807 36.9324 28.823 37.2164 28.823 37.5004C28.823 38.1252 29.0828 38.7216 29.4871 39.1476C29.0828 39.5736 28.823 40.17 28.823 40.7948C28.823 41.4196 29.0828 42.016 29.4871 42.442C29.0828 42.868 28.823 43.4644 28.823 44.0892C28.823 44.714 29.0828 45.3104 29.4871 45.7364C29.0828 46.1624 28.823 46.7588 28.823 47.3837C28.823 48.4629 29.5159 49.3717 30.4976 49.7125V50.6781C30.4976 51.5869 29.7469 52.3253 28.823 52.3253V52.3537ZM38.0624 48.2357H31.335C30.873 48.2357 30.4976 47.8665 30.4976 47.4121C30.4976 46.9576 30.873 46.5884 31.335 46.5884H38.0624C38.5244 46.5884 38.8997 46.9576 38.8997 47.4121C38.8997 47.8665 38.5244 48.2357 38.0624 48.2357Z" fill="#0093DD"/>
<path fill-rule="evenodd" clip-rule="evenodd" d="M3.64612 9.4408H5.32076V11.088H3.64612V9.4408Z" fill="#666666"/>
<path fill-rule="evenodd" clip-rule="evenodd" d="M3.64612 13.5587H5.32076V15.2059H3.64612V13.5587Z" fill="#666666"/>
<path fill-rule="evenodd" clip-rule="evenodd" d="M3.64612 17.677H5.32076V19.3242H3.64612V17.677Z" fill="#666666"/>
<path fill-rule="evenodd" clip-rule="evenodd" d="M50.6509 36.6764H52.3255V38.3236H50.6509V36.6764Z" fill="#666666"/>
<path fill-rule="evenodd" clip-rule="evenodd" d="M50.6509 40.7947H52.3255V42.4419H50.6509V40.7947Z" fill="#666666"/>
<path fill-rule="evenodd" clip-rule="evenodd" d="M50.6509 44.9412H52.3255V46.5884H50.6509V44.9412Z" fill="#666666"/>
</svg>
