<?xml version="1.0" encoding="UTF-8"?>
<!DOCTYPE svg PUBLIC "-//W3C//DTD SVG 1.1//EN" "http://www.w3.org/Graphics/SVG/1.1/DTD/svg11.dtd">
<!-- Creator: CorelDRAW X6 -->
<svg xmlns="http://www.w3.org/2000/svg" xml:space="preserve" width="31.617mm" height="31.617mm" version="1.1" style="shape-rendering:geometricPrecision; text-rendering:geometricPrecision; image-rendering:optimizeQuality; fill-rule:evenodd; clip-rule:evenodd"
viewBox="0 0 3162 3162"
 xmlns:xlink="http://www.w3.org/1999/xlink">
 <defs>
  <style type="text/css">
   <![CDATA[
    .fil0 {fill:none}
    .fil1 {fill:#ffffff}
   ]]>
  </style>
 </defs>
 <g id="Слой_x0020_1">
  <metadata id="CorelCorpID_0Corel-Layer"/>
  <rect class="fil0" width="3162" height="3162"/>
  <path class="fil1" d="M1281 1260c-31,20 -48,51 -48,89 0,38 17,69 48,89 26,16 28,17 110,17l84 0 0 358 0 358 -108 0c-115,0 -131,3 -158,28 -24,23 -33,44 -33,78 0,39 19,74 52,92l24 13 336 -2 336 -2 19 -14c56,-40 56,-138 0,-178 -18,-13 -25,-14 -135,-16l-116 -2 -2 -427 -2 -427 -16 -24c-30,-46 -41,-48 -214,-48l-152 0 -27 17zm212 -468c-100,45 -124,169 -48,246 65,65 161,62 222,-8 57,-65 47,-167 -21,-219 -44,-33 -105,-41 -154,-19zm88 -587c380,0 724,154 973,403 249,249 403,593 403,973 0,380 -154,724 -403,973 -249,249 -593,403 -973,403 -380,0 -724,-154 -973,-403 -249,-249 -403,-593 -403,-973 0,-380 154,-724 403,-973 249,-249 593,-403 973,-403zm867 508c-222,-222 -529,-359 -867,-359 -339,0 -645,137 -867,359 -222,222 -359,529 -359,867 0,339 137,645 359,867 222,222 529,359 867,359 339,0 645,-137 867,-359 222,-222 359,-529 359,-867 0,-339 -137,-645 -359,-867z"/>
 </g>
</svg>
